<svg width="543" height="32" viewBox="0 0 543 32" fill="none" xmlns="http://www.w3.org/2000/svg">
<mask id="mask0_2603_207" style="mask-type:alpha" maskUnits="userSpaceOnUse" x="0" y="0" width="543" height="32">
<rect width="543" height="32" rx="2" fill="url(#paint0_linear_2603_207)"/>
</mask>
<g mask="url(#mask0_2603_207)">
<path d="M405.455 36.3563C425.445 38.5616 445.375 42.9343 465.772 50.0314C479.397 54.8049 496.43 59.928 506.633 49.6292C514.866 41.2755 513.36 27.8431 511.092 16.3073C504.947 -16.4036 498.721 -49.2423 492.702 -82.0326C487.57 -109.168 487.31 -145.212 470.721 -168.006C450.954 -195.022 412.529 -202.891 379.978 -195.45C354.557 -189.638 330.585 -175.858 304.453 -175.989C286.156 -176.06 268.848 -183.318 254.62 -194.992C242.674 -204.722 232.936 -217.433 226.651 -231.421C212.306 -263.076 225.819 -295.14 225.469 -327.934C225.249 -359.39 225.027 -392.263 222.689 -423.987C222.13 -432.514 220.919 -441.516 215.986 -448.539C211.053 -455.562 200.868 -459.654 193.537 -455.235C186.075 -450.74 184.836 -440.557 183.851 -431.95C180.134 -401.403 166.368 -372.188 145.326 -349.776C133.518 -337.229 119.684 -326.784 108.978 -313.328C98.1752 -299.461 93.9667 -284.402 95.1153 -267.018C96.3768 -249.17 107.627 -236.874 115.666 -221.501C127.045 -200.233 122.67 -169.99 115.452 -147.009C108.235 -124.028 91.7272 -104.276 70.7766 -92.7455C57.6999 -85.6167 43.1685 -81.6576 29.6605 -75.5004C16.1521 -69.3429 2.98413 -60.3816 -3.18472 -46.7545C-20.1215 -9.87342 44.1577 35.5738 71.9565 49.3915C101.732 64.1012 142.772 73.881 175.64 65.5314C211.198 56.384 248.179 50.072 284.633 43.2024C326.135 36.1872 365.683 31.9931 405.455 36.3563Z" stroke="white" stroke-opacity="0.1" stroke-width="0.7" stroke-miterlimit="10" stroke-linecap="round" stroke-linejoin="round"/>
<path d="M91.2909 -7.98258C89.6939 -10.5311 88.5253 -13.5264 87.7714 -16.4264C85.3943 -27.0054 93.6865 -37.5266 103.759 -41.5311C116.234 -46.5087 141.296 -48.3691 154.457 -44.9014C165.052 -42.134 175.395 -37.7888 186.399 -37.7621C212.659 -37.7109 233.597 -63.9656 234.9 -90.163C236.124 -116.488 222.047 -141.212 204.238 -160.58C186.668 -179.566 174.283 -197.531 162.772 -221.555C157.415 -232.93 154.429 -245.612 156.269 -257.947C158.078 -269.197 165.859 -280.818 177.259 -281.572C185.778 -282.118 193.736 -275.923 197.907 -268.419C205.337 -255.15 205.944 -237.781 211.593 -223.395C217.13 -209.47 218.733 -192.026 229.534 -181.578C272.865 -139.866 332.337 -175.891 381.541 -177.97C412.256 -179.292 443.698 -167.579 458.736 -139.907C476.554 -107.233 479.829 -68.6412 482.702 -32.1043C484.237 -12.123 484.276 0.0992145 464.897 9.04773C444.341 18.3795 429.79 12.4107 409.608 9.61615C386.146 6.39226 356.606 14.9637 333.571 18.9266C294.202 25.6699 254.677 33.5768 214.738 33.7553C189.1 33.8468 163.137 30.5933 138.819 22.0475C124.287 16.9558 100.62 7.46999 91.2909 -7.98258Z" stroke="white" stroke-opacity="0.1" stroke-width="0.7" stroke-miterlimit="10" stroke-linecap="round" stroke-linejoin="round"/>
<path d="M281.567 -43.9743C279.769 -43.7346 277.842 -43.4152 276.17 -43.2549C264.039 -41.6875 251.541 -40.4223 240.228 -35.2859C230.602 -30.8514 221.511 -21.6052 223.474 -11.1211C225.469 -0.302594 237.836 4.72738 248.669 6.45844C280.336 11.4631 311.946 3.36893 343.119 -0.90052C374.752 -5.28187 407.149 -2.50894 438.92 -1.2972C447.791 -0.998662 457.457 -0.844109 464.693 -6.26518C473.804 -13.2173 474.877 -26.4915 474.234 -37.98C471.833 -78.0068 454.804 -147.028 412.238 -163.484C398.134 -169.023 382.39 -166.434 367.441 -163.988C340.554 -159.386 316.331 -151.662 294.276 -134.825C288.313 -130.2 282.022 -122.708 285.506 -116.017C294.616 -98.6531 337.886 -113.875 333.152 -82.6891C329.506 -57.6854 303.345 -47.682 281.567 -43.9743Z" stroke="white" stroke-opacity="0.1" stroke-width="0.7" stroke-miterlimit="10" stroke-linecap="round" stroke-linejoin="round"/>
<path d="M103.224 -216.188C94.4534 -230.749 82.7713 -244.016 80.0178 -260.569C71.7826 -311.319 131.79 -342.532 156.039 -377.076C167.014 -392.648 173.672 -416.523 177.522 -435.262C180.49 -449.19 180.275 -468.76 200.87 -467.286C212.559 -466.449 222.053 -456.955 226.548 -446.107C239.012 -415.757 231.64 -382.56 230.107 -351.073C229.388 -335.536 231.599 -320.416 231.295 -304.783C230.933 -285.566 231.735 -266.19 237.439 -247.756C245.515 -221.579 258.686 -192.747 285.498 -187.007C322.298 -179.185 355.243 -205.509 390.972 -208.729C432.592 -212.446 467.162 -188.672 486.722 -152.653C501.521 -125.364 505.019 -94.8982 513.722 -65.7416C523.306 -33.7654 526.605 0.907018 533.754 33.5219C536.276 44.898 538.721 57.565 533.103 67.8298C526.296 80.4373 509.791 84.9229 495.645 82.4279C481.499 79.9329 468.952 72.3542 456.041 65.8908C423.141 49.5896 386.308 41.4325 349.556 42.454C301.084 43.7201 254.019 55.9966 206.581 65.1344C185.377 69.1919 163.41 73.7278 142.124 76.24C119.915 78.9753 91.5351 69.6032 70.7709 62.2035C43.5693 52.4489 18.0402 34.9007 1.86246 10.7834C-11.0733 -8.44364 -24.9012 -36.1634 -9.79836 -57.8735C2.69998 -75.8221 21.7228 -79.4007 40.8027 -86.5644C60.2165 -93.7603 78.2203 -105.752 90.8484 -122.362C107.463 -144.487 119.855 -179.754 108.882 -205.18C107.442 -208.892 105.46 -212.62 103.224 -216.188Z" stroke="white" stroke-opacity="0.1" stroke-width="0.7" stroke-miterlimit="10" stroke-linecap="round" stroke-linejoin="round"/>
<path d="M472.608 -130.497C483.103 -96.7841 486.929 -61.554 489.719 -26.5627C491.287 -6.2467 494.398 21.6217 468.755 27.9283C455.242 31.2492 441.061 27.0014 427.297 24.2672C393.795 17.7502 356.412 22.0066 322.867 26.1659C262.432 33.5086 203.988 57.8852 142.427 51.5567C107.928 47.9721 73.1519 33.2016 49.6455 7.28702C42.0012 -1.23435 28.0353 -17.864 27.1527 -29.7346C26.0724 -45.0318 45.064 -56.5774 56.9505 -61.3637C80.1823 -70.9514 102.765 -78.1808 126.94 -85.6978C141.948 -90.3098 157.318 -97.4562 165.605 -110.813C175.066 -125.972 173.531 -145.953 166.779 -162.666C157.386 -186.42 145.856 -206.696 133.998 -228.728C126.902 -242.03 122.525 -257.214 123.978 -272.145C125.539 -288.033 133.314 -302.491 143.483 -314.542C152.144 -324.759 164.711 -331.568 173.036 -341.755C179.12 -349.295 178.733 -359.527 184.706 -367.529C188.168 -372.184 194.469 -375.419 199.95 -373.178C206.627 -370.441 208.142 -361.803 208.778 -354.567C211.647 -319.45 212.115 -283.358 219.379 -248.862C228.266 -206.688 254.188 -171.647 298.393 -172.369C331.292 -172.752 361.23 -189.737 393.523 -190.804C412.297 -191.387 428.886 -185.275 444.924 -175.802C461.409 -165.898 466.152 -150.412 471.952 -132.392C472.271 -131.883 472.463 -131.294 472.608 -130.497Z" stroke="white" stroke-opacity="0.1" stroke-width="0.7" stroke-miterlimit="10" stroke-linecap="round" stroke-linejoin="round"/>
<path d="M356.578 -15.9024C347.595 -16.6633 336.426 -19.7809 334.96 -28.6239C333.881 -34.8702 338.631 -40.8639 344.135 -43.9578C349.639 -47.0517 356.054 -48.4094 361.798 -51.1206C382.274 -60.5801 392.907 -88.0087 378.921 -106.933C375.105 -112.173 366.8 -116.376 364.591 -122.446C360.397 -133.662 371.808 -145.427 382.475 -146.787C409.366 -149.971 428.884 -127.592 439.775 -103.711C445.676 -90.9023 452.275 -79.2412 454.468 -64.9967C455.919 -55.612 455.269 -45.6207 450.954 -37.2367C445.496 -26.7171 434.553 -19.8601 423.078 -16.3965C401.942 -10.2516 378.08 -14.1125 356.578 -15.9024Z" stroke="white" stroke-opacity="0.1" stroke-width="0.7" stroke-miterlimit="10" stroke-linecap="round" stroke-linejoin="round"/>
</g>
<defs>
<linearGradient id="paint0_linear_2603_207" x1="38.7854" y1="5.33246" x2="42.0489" y2="53.1687" gradientUnits="userSpaceOnUse">
<stop offset="0.000131968" stop-color="#7F74CC"/>
<stop offset="1" stop-color="#C195DF"/>
</linearGradient>
</defs>
</svg>
