<svg width="538" height="1225" viewBox="0 0 538 1225" fill="none" xmlns="http://www.w3.org/2000/svg">
<g clip-path="url(#clip0_2590_2635)">
<path d="M-263.894 894.912C-294.783 908.443 -324.491 925.414 -353.586 946.979C-373.004 961.436 -397.702 978.158 -419.182 966.779C-436.535 957.527 -440.84 935.273 -442.98 915.674C-449.501 860.241 -455.957 804.563 -462.721 749.067C-468.076 703.066 -485.682 645.243 -470.532 600.457C-452.406 547.325 -394.846 515.504 -339.03 511.129C-295.441 507.714 -250.186 517.775 -208.429 504.491C-179.182 495.223 -155.112 474.946 -138.18 449.143C-123.927 427.592 -114.698 402.373 -111.633 376.84C-104.504 318.994 -142.163 274.432 -158.002 221.767C-173.377 171.307 -189.46 118.578 -201.582 66.6305C-204.951 52.7021 -207.513 37.6863 -203.13 23.9772C-198.748 10.2682 -184.494 -1.37799 -170.551 2.02798C-156.362 5.49 -149.288 21.1685 -143.407 34.4517C-122.184 81.4873 -85.545 121.362 -40.6618 146.708C-15.491 160.882 11.8709 170.68 35.7336 186.862C59.9564 203.653 74.2214 225.65 81.0759 254.051C87.9815 283.25 76.1253 308.56 70.9462 337.19C63.3696 376.924 85.4945 423.143 108.537 456.317C131.579 489.49 167.874 512.845 207.169 520.82C231.661 525.688 256.897 524.754 281.594 527.851C306.292 530.949 331.847 538.704 348.533 557.43C394.08 607.989 313.933 712.894 276.354 748.919C236.056 787.361 175.266 823.548 118.489 826.629C57.0083 829.778 -5.33165 838.177 -67.1073 845.42C-137.034 854.955 -202.425 868.029 -263.894 894.912Z" stroke="black" stroke-opacity="0.07" stroke-width="0.7" stroke-miterlimit="10" stroke-linecap="round" stroke-linejoin="round"/>
<path d="M216.723 666.757C218.004 661.879 218.377 656.5 218.133 651.481C216.648 633.359 198.116 620.667 179.993 619.297C157.539 617.571 116.5 627.132 97.1722 639.267C81.5996 648.998 67.2185 661.128 49.622 666.676C7.62132 679.897 -39.0163 648.348 -54.2013 607.068C-69.3226 565.544 -59.1569 518.927 -40.3401 479.015C-21.7154 439.836 -10.8774 404.884 -4.46732 360.67C-1.5825 339.783 -3.14489 317.99 -12.257 299.167C-20.7782 282.064 -39.0411 267.357 -57.6636 271.854C-71.57 275.243 -81.2088 289.139 -84.1312 303.237C-89.3871 328.194 -81.6735 356.299 -83.52 382.152C-85.4186 407.21 -79.2616 435.934 -91.3231 458.061C-139.812 546.507 -253.006 518.599 -332.79 539.889C-382.608 553.142 -427.07 587.62 -437.3 639.436C-449.479 700.65 -435.423 764.061 -421.75 823.98C-414.216 856.731 -408.167 876.313 -372.679 880.941C-335.115 885.593 -314.812 868.759 -283.911 854.188C-247.973 837.289 -196.412 836.229 -157.565 831.048C-91.1881 822.144 -23.9781 815.025 40.0286 795.328C81.1056 782.647 121.03 764.449 155.674 738.604C176.386 723.183 209.519 696.159 216.723 666.757Z" stroke="black" stroke-opacity="0.07" stroke-width="0.7" stroke-miterlimit="10" stroke-linecap="round" stroke-linejoin="round"/>
<path d="M-105.793 704.348C-102.794 703.831 -99.5509 703.379 -96.7952 702.799C-76.5963 699.238 -55.9617 695.01 -35.2887 697.572C-17.6665 699.853 1.50608 710.105 3.60742 727.868C5.82357 746.183 -11.4534 760.421 -27.9235 768.612C-76.1016 792.466 -130.738 795.326 -182.761 804.089C-235.578 812.903 -286.038 833.55 -336.279 851.385C-350.326 856.301 -365.719 861.385 -380.009 856.328C-398.067 849.759 -406.422 829.049 -411.137 810.338C-427.309 745.069 -434.57 626.071 -374.676 578.435C-354.873 562.513 -328.382 558.779 -303.235 555.214C-257.904 549.128 -215.276 549.372 -171.559 565.288C-159.704 569.707 -145.889 578.551 -148.12 591.004C-154.017 623.356 -230.877 620.64 -207.708 668.189C-189.37 706.386 -142.499 709.309 -105.793 704.348Z" stroke="black" stroke-opacity="0.07" stroke-width="0.7" stroke-miterlimit="10" stroke-linecap="round" stroke-linejoin="round"/>
<path d="M93.516 339.468C100.272 311.774 112.333 284.693 108.463 256.82C96.2663 171.469 -15.3768 151.532 -71.4583 108.371C-96.8089 88.9366 -119.402 54.0529 -134.934 25.9849C-146.648 5.17563 -156.09 -26.2552 -188.313 -13.5927C-206.602 -6.40411 -217.049 13.5422 -218.817 33.156C-223.589 87.9704 -195.191 137.418 -176.994 187.05C-168.074 211.559 -164.052 236.868 -155.748 261.737C-145.56 292.317 -137.154 323.731 -137.066 356.091C-136.902 402.031 -143.563 454.771 -183.603 477.373C-238.587 508.305 -304.474 482.653 -363.264 495.375C-431.731 510.249 -475.169 565.599 -488.463 633.039C-498.501 684.122 -488.866 734.637 -488.214 785.66C-487.564 841.637 -475.506 898.786 -470.639 954.567C-468.987 974.038 -466.566 995.536 -452.442 1009.16C-435.244 1025.93 -406.586 1024.85 -385.195 1013.78C-363.804 1002.71 -347.513 984.301 -330.082 967.496C-285.581 924.943 -230.711 893.458 -171.383 876.705C-93.1765 854.48 -11.7141 850.582 68.7734 841.474C104.737 837.36 142.161 833.63 177.484 827.001C214.395 820.267 255.127 791.067 284.658 768.834C323.314 739.611 355.395 698.75 369.227 652.052C380.315 614.805 388.584 563.517 353.558 536.324C324.581 513.848 292.348 517.637 258.23 515.717C223.562 513.912 188.753 503.726 160.238 483.458C122.584 456.356 85.1178 406.107 89.9648 359.919C90.4135 353.257 91.7213 346.298 93.516 339.468Z" stroke="black" stroke-opacity="0.07" stroke-width="0.7" stroke-miterlimit="10" stroke-linecap="round" stroke-linejoin="round"/>
<path d="M-454.796 661.44C-454.735 720.653 -443.241 778.957 -430.21 836.362C-422.56 869.664 -413.605 915.828 -369.413 913.093C-346.125 911.647 -325.554 897.753 -304.894 886.49C-254.536 859.297 -192.58 847.406 -136.815 837.281C-36.4234 818.796 69.2994 828.573 164.656 787.643C218.076 764.645 266.345 723.603 291.007 670.363C298.98 652.899 313.015 619.293 308.492 599.851C302.572 574.826 266.405 565.847 244.988 564.133C203.014 560.41 163.258 560.137 120.81 560.201C94.4851 560.328 66.3144 556.579 46.3726 539.345C23.6504 519.816 16.1162 487.065 18.5656 456.936C21.7204 414.215 30.034 375.992 37.9954 334.794C42.7 309.952 42.1118 283.459 32.321 260.285C21.8777 235.636 2.20561 216.385 -20.0947 202.182C-39.0637 190.163 -62.5814 185.551 -80.9987 173.412C-94.5059 164.386 -99.002 147.814 -112.562 137.995C-120.43 132.276 -132.133 130.25 -139.784 136.581C-149.101 144.302 -147.206 158.885 -144.606 170.787C-131.638 228.432 -114.339 286.435 -108.716 345.284C-101.85 417.237 -125.814 486.293 -196.92 507.254C-249.764 523.102 -306.168 510.894 -358.384 525.343C-388.721 533.803 -412.214 551.885 -433.144 575.072C-454.575 599.172 -454.422 626.333 -454.693 658.078C-454.949 659.053 -454.963 660.092 -454.796 661.44Z" stroke="black" stroke-opacity="0.07" stroke-width="0.7" stroke-miterlimit="10" stroke-linecap="round" stroke-linejoin="round"/>
</g>
<defs>
<clipPath id="clip0_2590_2635">
<rect width="588" height="1101" fill="white" transform="translate(218.789 1224.12) rotate(-163.161)"/>
</clipPath>
</defs>
</svg>
