<svg width="684" height="1415" viewBox="0 0 684 1415" fill="none" xmlns="http://www.w3.org/2000/svg">
<g clip-path="url(#clip0_2590_2663)">
<path d="M1220.62 1054.59C1263.42 1062.52 1305.76 1075.11 1348.67 1093.66C1377.33 1106.12 1413.29 1119.88 1436.94 1099.26C1456.04 1082.53 1454.91 1053.29 1451.85 1028.03C1443.75 956.438 1435.51 884.558 1427.71 812.816C1420.92 753.423 1426.07 675.567 1393.86 623.731C1355.46 562.279 1273.75 539.209 1202.3 550.121C1146.5 558.646 1092.57 584.599 1036.17 580.18C996.683 577.132 960.467 558.723 931.6 531.27C907.35 508.373 888.339 479.389 876.983 448.198C851.024 377.587 885.272 310.504 889.708 239.652C894.211 171.707 898.934 100.703 898.909 31.8458C899.052 13.3485 897.861 -6.27828 888.323 -22.2205C878.786 -38.1628 857.445 -48.6096 840.919 -40.229C824.099 -31.7054 819.813 -9.91898 816.322 8.50605C803.464 73.8656 769.121 134.758 720.146 179.813C692.668 205.029 661.15 225.39 635.907 252.746C610.391 280.973 598.921 312.816 598.65 350.528C598.548 389.259 620.889 417.586 635.812 452.047C657.012 499.761 642.779 564.359 623.56 612.832C604.341 661.302 565.577 701.33 518.522 722.907C489.163 736.228 457.165 742.475 427.029 753.63C396.891 764.785 367.045 782.047 351.57 810.49C309.169 887.43 440.746 995.719 498.573 1029.95C560.526 1066.42 647.578 1094.03 719.858 1081.2C798.071 1067.08 878.906 1059.31 958.693 1050.25C1049.4 1041.67 1135.44 1038.88 1220.62 1054.59Z" stroke="black" stroke-opacity="0.07" stroke-width="0.7" stroke-miterlimit="10" stroke-linecap="round" stroke-linejoin="round"/>
<path d="M549.394 909.146C546.349 903.391 544.301 896.74 543.132 890.36C539.675 867.145 559.242 845.743 581.621 838.692C609.341 829.921 663.741 829.871 691.603 839.441C714.039 847.092 735.682 858.11 759.432 859.909C816.116 864.176 865.475 810.81 872.434 754.459C879.242 697.821 852.766 642.218 817.384 597.585C782.458 553.817 758.564 513.072 737.515 459.385C727.751 433.98 723.311 406.129 729.236 379.791C734.922 355.789 753.559 331.934 778.291 332.11C796.768 332.28 812.969 346.912 820.785 363.772C834.725 393.595 833.286 431.189 843.204 463.141C852.953 494.078 853.653 531.991 875.318 556.257C962.261 653.166 1096.36 584.806 1202.91 588.105C1269.43 590.113 1335.45 620.376 1363.54 682.496C1396.84 755.854 1397.8 839.688 1398.22 919.021C1398.37 962.401 1396.52 988.794 1353.27 1005.05C1307.41 1021.94 1276.94 1006.75 1233.81 997.521C1183.67 986.848 1118.54 1000.68 1068.19 1005.59C982.126 1013.91 895.544 1024.73 809.294 1018.79C753.93 1014.93 698.394 1003.8 647.248 981.499C616.68 968.207 567.089 943.982 549.394 909.146Z" stroke="black" stroke-opacity="0.07" stroke-width="0.7" stroke-miterlimit="10" stroke-linecap="round" stroke-linejoin="round"/>
<path d="M608.109 461.547C591.48 428.725 568.36 398.233 565.035 362.061C555.289 251.197 689.777 193.31 747.596 122.571C773.754 90.6898 791.905 40.2013 803.184 0.35516C811.795 -29.2444 814.43 -71.5263 858.657 -65.0855C883.76 -61.4278 902.754 -39.4291 910.741 -15.2966C932.845 52.1968 911.675 122.698 903.382 190.431C899.372 223.86 901.751 256.853 898.62 290.553C894.798 331.984 893.461 373.941 902.859 414.639C916.151 472.431 940.021 536.761 996.996 553.395C1075.21 576.107 1150.5 524.491 1228.14 523.195C1318.58 521.757 1389.45 578.554 1425.98 659.411C1453.6 720.666 1456.34 786.991 1470.51 851.314C1486.14 921.863 1487.77 997.238 1498.04 1068.78C1501.69 1093.74 1504.96 1121.47 1491.21 1142.74C1474.52 1168.88 1438.17 1175.96 1408.03 1168.33C1377.89 1160.71 1352 1142.36 1325.15 1126.36C1256.7 1085.96 1178.47 1062.52 1098.97 1058.91C994.127 1053.97 890.575 1073.03 786.717 1085.24C740.299 1090.65 692.157 1096.96 645.805 1099.02C597.425 1101.41 537.641 1076.68 493.985 1057.42C436.804 1032.06 384.468 990.132 353.359 935.506C328.476 891.95 303.011 829.918 339.052 785.439C368.875 748.669 410.509 743.954 452.834 731.508C495.885 719.046 536.651 696.007 566.542 662.147C605.913 617.011 638.247 542.837 618.583 486.208C616.061 477.966 612.372 469.604 608.109 461.547Z" stroke="black" stroke-opacity="0.07" stroke-width="0.7" stroke-miterlimit="10" stroke-linecap="round" stroke-linejoin="round"/>
<path d="M1392 705.008C1409.32 779.451 1412 856.113 1412.49 932.096C1412.66 976.204 1414.96 1036.86 1358.61 1046.42C1328.91 1051.45 1298.96 1040.03 1269.68 1031.95C1198.39 1012.58 1117.01 1015.85 1043.93 1019.52C912.298 1025.81 782.266 1069.18 650.367 1045.78C576.454 1032.58 503.716 995.187 457.07 935.52C441.916 915.914 414.398 877.802 414.371 852.035C414.46 818.84 457.288 796.92 483.707 788.469C535.379 771.447 585.276 759.414 638.657 747.012C671.787 739.431 706.099 726.435 726.104 698.911C748.929 667.683 748.778 624.303 736.846 587.155C720.327 534.386 698.645 488.787 676.531 439.346C663.318 409.506 656.273 376.034 661.772 344.028C667.657 309.975 686.731 279.994 710.591 255.586C730.906 234.901 759.115 222.189 778.7 201.516C793.028 186.199 793.811 164.048 807.972 147.72C816.183 138.217 830.299 132.231 841.777 137.937C855.759 144.903 857.661 163.789 857.89 179.513C858.526 255.78 853.822 333.772 864.045 409.392C876.555 501.849 926.971 581.6 1022.52 587.037C1093.6 591.418 1160.92 559.489 1230.81 562.296C1271.43 564.009 1306.28 579.829 1339.4 602.818C1373.42 626.809 1381.21 660.992 1390.88 700.812C1391.49 701.963 1391.81 703.265 1392 705.008Z" stroke="black" stroke-opacity="0.07" stroke-width="0.7" stroke-miterlimit="10" stroke-linecap="round" stroke-linejoin="round"/>
</g>
<defs>
<clipPath id="clip0_2590_2663">
<rect width="759.141" height="1421.13" fill="white" transform="matrix(0.866025 -0.5 -0.5 -0.866025 710.566 1610.31)"/>
</clipPath>
</defs>
</svg>
