<svg width="32" height="32" viewBox="0 0 32 32" fill="none" xmlns="http://www.w3.org/2000/svg">
<g clip-path="url(#clip0_2048_466)">
<path d="M22.84 18.8849C22.7688 18.8188 22.6798 18.7749 22.5841 18.7586C22.4883 18.7422 22.3898 18.7542 22.3007 18.7929C22.2116 18.8316 22.1357 18.8954 22.0823 18.9766C22.0289 19.0578 22.0003 19.1527 22 19.2499V30.7499C22 30.834 22.0213 30.9169 22.0618 30.9906C22.1024 31.0644 22.1609 31.1267 22.2319 31.1718C22.303 31.217 22.3843 31.2434 22.4683 31.2488C22.5523 31.2541 22.6363 31.2381 22.7125 31.2024L24.885 30.1849L25.5 31.5749C25.553 31.6961 25.6519 31.7914 25.775 31.8399C25.8341 31.8625 25.8967 31.8744 25.96 31.8749C26.028 31.8743 26.0952 31.8598 26.1575 31.8324L29.215 30.4999C29.3349 30.4453 29.4284 30.3456 29.4752 30.2225C29.522 30.0994 29.5183 29.9628 29.465 29.8424L28.855 28.4399L31.0525 27.4849C31.129 27.4519 31.1961 27.4003 31.2476 27.3348C31.2991 27.2693 31.3335 27.192 31.3475 27.1099C31.3614 27.0281 31.3547 26.9441 31.3281 26.8656C31.3015 26.787 31.2558 26.7163 31.195 26.6599L22.84 18.8849ZM28 27.7199C27.8801 27.7744 27.7866 27.8741 27.7398 27.9972C27.693 28.1203 27.6967 28.2569 27.75 28.3774L28.36 29.7799L26.2075 30.7174L25.5975 29.3149C25.571 29.2539 25.5325 29.1988 25.4844 29.1529C25.4364 29.107 25.3796 29.0711 25.3175 29.0474C25.2548 29.0236 25.188 29.0127 25.121 29.0152C25.054 29.0178 24.9882 29.0338 24.9275 29.0624L23.0025 29.9624V20.3974L29.9675 26.8699L28 27.7199Z" fill="black"/>
<path d="M21.93 12.6114C21.9302 11.5568 21.6492 10.5212 21.1158 9.61141C20.5825 8.70161 19.8162 7.95049 18.8959 7.43548C17.9756 6.92048 16.9346 6.66021 15.8802 6.68152C14.8258 6.70283 13.7962 7.00494 12.8974 7.55671C11.9987 8.10847 11.2634 8.88994 10.7672 9.82055C10.2711 10.7512 10.0321 11.7972 10.0749 12.851C10.1177 13.9047 10.4407 14.928 11.0107 15.8153C11.5807 16.7026 12.377 17.4218 13.3175 17.8989C11.2845 18.4503 9.46858 19.6101 8.11332 21.2227C6.75806 22.8353 5.9282 24.8238 5.73502 26.9214C4.63368 25.8853 3.6933 24.6904 2.94502 23.3764C1.54621 20.9093 0.877101 18.0956 1.01564 15.2629C1.15417 12.4302 2.09465 9.69521 3.72752 7.37639C5.39618 5.00065 7.7184 3.1602 10.4125 2.07831C13.1066 0.996416 16.0567 0.719583 18.905 1.28139C19.6253 1.4222 20.3339 1.61692 21.025 1.86389C22.2663 2.3083 23.4432 2.91525 24.525 3.66889C25.3483 4.2402 26.1128 4.89172 26.8075 5.61389C27.7208 6.56662 28.5065 7.63387 29.145 8.78889C29.4691 9.37915 29.753 9.99053 29.995 10.6189C30.2749 11.3436 30.4972 12.0893 30.66 12.8489C30.884 13.884 30.998 14.9398 31 15.9989C30.9986 16.8366 30.9284 17.6727 30.79 18.4989C30.725 18.8839 30.645 19.2639 30.54 19.6414C30.2573 20.7916 29.8376 21.9037 29.29 22.9539L29.2425 23.0439C29.1829 23.1607 29.1715 23.2962 29.2108 23.4213C29.2501 23.5464 29.337 23.651 29.4528 23.7126C29.5685 23.7743 29.7038 23.788 29.8296 23.7508C29.9553 23.7136 30.0614 23.6286 30.125 23.5139L30.175 23.4189C31.1675 21.5149 31.7674 19.4309 31.9391 17.2906C32.1108 15.1503 31.8508 12.9973 31.1746 10.9594C30.4984 8.9215 29.4198 7.04018 28.0027 5.42708C26.5856 3.81398 24.8589 2.50197 22.925 1.56889C22.5 1.36639 22.04 1.17389 21.5825 0.998893C21.075 0.805178 20.5576 0.638281 20.0325 0.498893C17.5196 -0.153076 14.8862 -0.18653 12.3575 0.401393C10.2887 0.891456 8.33777 1.78729 6.61775 3.03696C4.89774 4.28663 3.44289 5.86527 2.33752 7.68139C0.804146 10.1844 -0.00500871 13.0636 2.33278e-05 15.9989C-0.000580784 18.4983 0.584397 20.9632 1.70806 23.1958C2.83173 25.4284 4.46283 27.3668 6.47062 28.8554C8.4784 30.344 10.807 31.3416 13.2698 31.7681C15.7326 32.1946 18.2611 32.0382 20.6525 31.3114C20.7795 31.2726 20.8859 31.185 20.9482 31.0678C21.0106 30.9505 21.0238 30.8134 20.985 30.6864C20.9462 30.5594 20.8586 30.4531 20.7414 30.3907C20.6242 30.3283 20.487 30.3151 20.36 30.3539C18.041 31.0572 15.5861 31.1875 13.2056 30.7338C10.8252 30.2801 8.59026 29.2559 6.69253 27.7489C6.70925 26.2828 7.07174 24.8413 7.75051 23.5417C8.42928 22.2421 9.40518 21.121 10.5989 20.2696C11.7925 19.4182 13.1703 18.8605 14.6201 18.6418C16.0699 18.4232 17.5509 18.5498 18.9425 19.0114C19.4001 19.1632 19.8449 19.3513 20.2725 19.5739C20.3905 19.6346 20.5278 19.6459 20.6542 19.6053C20.7805 19.5648 20.8856 19.4757 20.9463 19.3576C21.0069 19.2396 21.0182 19.1023 20.9777 18.976C20.9371 18.8496 20.848 18.7446 20.73 18.6839C20.0797 18.3495 19.3948 18.0871 18.6875 17.9014C19.6631 17.4042 20.4822 16.6469 21.0544 15.7134C21.6266 14.7799 21.9296 13.7063 21.93 12.6114V12.6114ZM16 17.5414C15.025 17.5414 14.0718 17.2523 13.2611 16.7105C12.4503 16.1688 11.8184 15.3989 11.4453 14.498C11.0722 13.5972 10.9745 12.6059 11.1648 11.6496C11.355 10.6933 11.8245 9.81483 12.514 9.12536C13.2035 8.43588 14.0819 7.96635 15.0382 7.77612C15.9946 7.5859 16.9858 7.68353 17.8867 8.05667C18.7875 8.42981 19.5575 9.0617 20.0992 9.87243C20.6409 10.6832 20.93 11.6363 20.93 12.6114C20.9287 13.9185 20.4089 15.1717 19.4846 16.096C18.5603 17.0202 17.3071 17.5401 16 17.5414Z" fill="black"/>
</g>
<defs>
<clipPath id="clip0_2048_466">
<rect width="32" height="32" fill="white"/>
</clipPath>
</defs>
</svg>
