<svg width="8" height="14" viewBox="0 0 8 14" fill="none" xmlns="http://www.w3.org/2000/svg">
<path d="M0.505552 0.396197L0.505433 0.396316C0.425763 0.475334 0.362528 0.569345 0.319375 0.672926C0.276222 0.776506 0.254004 0.887606 0.254004 0.999816C0.254004 1.11203 0.276222 1.22313 0.319375 1.32671C0.362528 1.43029 0.425763 1.5243 0.505432 1.60332L0.505637 1.60352L5.10543 6.18332C5.10548 6.18337 5.10553 6.18341 5.10558 6.18346C5.2133 6.29034 5.2988 6.41748 5.35716 6.55755C5.41554 6.69769 5.4456 6.848 5.4456 6.99982C5.4456 7.15163 5.41554 7.30194 5.35716 7.44208C5.29878 7.58221 5.21323 7.7094 5.10545 7.8163C5.10545 7.81631 5.10544 7.81631 5.10543 7.81632L0.505637 12.3961L0.505493 12.3963C0.345419 12.5552 0.255042 12.7712 0.254245 12.9968C0.253448 13.2224 0.342296 13.4391 0.501243 13.5991C0.66019 13.7592 0.876216 13.8496 1.1018 13.8504C1.32733 13.8512 1.54395 13.7624 1.70401 13.6035C1.70405 13.6034 1.70408 13.6034 1.70411 13.6034L6.29367 9.01382C6.82738 8.47944 7.12716 7.75507 7.12716 6.99982C7.12716 6.2446 6.82741 5.52025 6.29374 4.98588L0.505552 0.396197ZM0.505552 0.396197C0.66481 0.237884 0.880244 0.149023 1.1048 0.149023C1.32929 0.149023 1.54466 0.237828 1.7039 0.396048C1.70395 0.396098 1.704 0.396148 1.70405 0.396197L6.29367 4.98582L0.505552 0.396197Z" fill="black" stroke="#F4F5FB" stroke-width="0.3"/>
</svg>
