<svg width="24" height="24" viewBox="0 0 24 24" fill="none" xmlns="http://www.w3.org/2000/svg">
<path d="M19.6516 14.3068C19.5408 14.1652 19.3994 14.0505 19.2379 13.9714C19.0762 13.8921 18.8986 13.8505 18.7185 13.8498H18.7179H14.0059C12.9848 13.8498 12.0056 13.4442 11.2835 12.7222C10.5615 12.0001 10.1559 11.0209 10.1559 9.9998L10.1559 5.2778L10.1559 5.27751C10.1556 5.09843 10.114 4.92184 10.0344 4.76142C9.95516 4.60182 9.84043 4.46251 9.69901 4.35416C9.57629 4.2539 9.4319 4.18357 9.27727 4.14876C9.12187 4.11377 8.96043 4.11563 8.80588 4.15419C7.2379 4.54218 5.80113 5.33969 4.6425 6.46515C3.48387 7.5906 2.64497 9.00362 2.21161 10.5597C1.77824 12.1157 1.76597 13.7589 2.17604 15.3213C2.58612 16.8836 3.40382 18.309 4.54551 19.4516C5.6872 20.5943 7.11191 21.4132 8.67391 21.8245C10.2359 22.2359 11.8792 22.225 13.4356 21.7929C14.992 21.3608 16.4057 20.5231 17.5321 19.3654C18.6585 18.2077 19.4572 16.7716 19.8465 15.204L19.8927 15.0178H19.8747C19.8809 14.9225 19.8738 14.8266 19.8535 14.7327C19.8199 14.5771 19.7508 14.4313 19.6516 14.3068ZM19.6516 14.3068C19.6515 14.3066 19.6513 14.3064 19.6512 14.3063L19.5339 14.3998L19.6521 14.3074C19.6519 14.3072 19.6518 14.307 19.6516 14.3068ZM11.8499 5.27336V5.2738V9.9998C11.8499 10.57 12.0764 11.1169 12.4796 11.5201C12.8828 11.9233 13.4297 12.1498 13.9999 12.1498L18.7123 12.1498C18.7124 12.1498 18.7125 12.1498 18.7126 12.1498C19.1515 12.1515 19.5843 12.2527 19.9785 12.4457C20.3728 12.6387 20.7182 12.9186 20.9888 13.2643L20.9892 13.2648C21.2483 13.5925 21.4285 13.9753 21.5161 14.3837C21.6037 14.7921 21.5963 15.2151 21.4945 15.6201C20.8174 18.3049 19.1395 20.6293 16.8043 22.1172C14.4693 23.6051 11.6538 24.144 8.93441 23.6235C6.5158 23.1541 4.32983 21.8733 2.738 19.9929C1.14616 18.1124 0.243823 15.7449 0.180219 13.282C0.116616 10.8191 0.895554 8.40816 2.38822 6.44804C3.88088 4.48791 5.99786 3.09596 8.38905 2.50238L8.38941 2.50229C8.79392 2.40081 9.21634 2.39367 9.62405 2.48143C10.0318 2.56918 10.4138 2.74948 10.7408 3.00839L10.7408 3.0084L10.7422 3.00951C11.0881 3.27667 11.3678 3.61979 11.5599 4.01233C11.752 4.40488 11.8512 4.83634 11.8499 5.27336Z" fill="url(#paint0_linear_2048_353)" stroke="white" stroke-width="0.3"/>
<path d="M23.5065 7.48527L23.5069 7.48669C23.5846 7.76155 23.5979 8.05061 23.5457 8.33143C23.4935 8.61224 23.3773 8.87725 23.2061 9.10586C23.0348 9.33446 22.8132 9.52051 22.5584 9.64956C22.3038 9.77849 22.0229 9.84704 21.7375 9.8499H17.0193C16.2634 9.8499 15.5385 9.54963 15.004 9.01515C14.4696 8.48067 14.1693 7.75576 14.1693 6.9999V2.29989V2.29989C14.1693 2.05546 14.2177 1.81345 14.3118 1.58784C14.4058 1.36224 14.5437 1.15751 14.7173 0.985487C14.891 0.813467 15.097 0.677565 15.3235 0.585634C15.55 0.493703 15.7924 0.447566 16.0369 0.449894L16.0382 0.449895C16.2087 0.44999 16.3784 0.472445 16.5431 0.516683C18.21 0.971422 19.7293 1.85352 20.9506 3.0757C22.172 4.29795 23.053 5.81794 23.5065 7.48527ZM15.9194 2.18534L15.8572 2.23034L15.8573 2.30715L15.8653 6.9999H16.0153L15.8653 7.00015L15.8653 7.00001C15.8653 7.30497 15.9865 7.59743 16.2021 7.81307C16.4178 8.02873 16.7103 8.1499 17.0153 8.1499H21.1533H21.7343H21.9297L21.8792 7.96113C21.5076 6.572 20.7781 5.30464 19.7636 4.28551C18.7491 3.26639 17.4851 2.53115 16.0977 2.15317L16.0784 2.1479H16.0583H16.0323V2.14758L16.0225 2.14821C15.9853 2.15064 15.9496 2.1635 15.9194 2.18534Z" fill="url(#paint1_linear_2048_353)" stroke="white" stroke-width="0.3"/>
<defs>
<linearGradient id="paint0_linear_2048_353" x1="1.57661" y1="5.88599" x2="17.6963" y2="19.8129" gradientUnits="userSpaceOnUse">
<stop offset="0.000131968" stop-color="#627FE7"/>
<stop offset="1" stop-color="#3962CA"/>
</linearGradient>
<linearGradient id="paint1_linear_2048_353" x1="14.7127" y1="1.91622" x2="21.9201" y2="8.14706" gradientUnits="userSpaceOnUse">
<stop offset="0.000131968" stop-color="#627FE7"/>
<stop offset="1" stop-color="#3962CA"/>
</linearGradient>
</defs>
</svg>
