<svg width="24" height="24" viewBox="0 0 24 24" fill="none" xmlns="http://www.w3.org/2000/svg">
<g clip-path="url(#clip0_2048_391)">
<path d="M14.6747 20.0505L14.7103 20.15H14.816H23C23.2254 20.15 23.4416 20.2396 23.601 20.399C23.7604 20.5584 23.85 20.7746 23.85 21C23.85 21.2254 23.7604 21.4416 23.601 21.601C23.4416 21.7605 23.2254 21.85 23 21.85H14.816H14.7094L14.6743 21.9507C14.4809 22.5058 14.1196 22.987 13.6404 23.3275C13.1612 23.668 12.5879 23.851 12 23.851C11.4121 23.851 10.8388 23.668 10.3596 23.3275C9.88042 22.987 9.51905 22.5058 9.32565 21.9507L9.29058 21.85H9.184H1C0.774566 21.85 0.558365 21.7605 0.398959 21.601C0.239553 21.4416 0.15 21.2254 0.15 21C0.15 20.7746 0.239553 20.5584 0.398959 20.399C0.558365 20.2396 0.774566 20.15 1 20.15H9.184H9.2897L9.32526 20.0505C9.46719 19.6531 9.69557 19.2923 9.99391 18.9939C10.2923 18.6956 10.6531 18.4672 11.0505 18.3253L11.15 18.2897V18.184V15V14.85H11H7C5.97892 14.85 4.99965 14.4444 4.27764 13.7224C3.55562 13.0003 3.15 12.0211 3.15 11V4C3.15 2.97892 3.55562 1.99966 4.27764 1.27764C4.99965 0.555625 5.97892 0.150001 7 0.150001L8.47 0.150001L8.47014 0.150001C9.04681 0.149478 9.61 0.324398 10.0849 0.651531L10.085 0.651596L11.971 1.9486L11.9712 1.94875C12.1626 2.07982 12.3891 2.14997 12.621 2.15H12.621H17C18.0211 2.15 19.0003 2.55563 19.7224 3.27764C20.4444 3.99966 20.85 4.97892 20.85 6V11C20.85 12.0211 20.4444 13.0003 19.7224 13.7224C19.0003 14.4444 18.0211 14.85 17 14.85H13H12.85V15V18.184V18.2897L12.9495 18.3253C13.3469 18.4672 13.7077 18.6956 14.0061 18.9939C14.3044 19.2923 14.5328 19.6531 14.6747 20.0505ZM9.12219 2.05254L9.12199 2.0524C8.93016 1.9205 8.70281 1.84992 8.47 1.85C8.46998 1.85 8.46996 1.85 8.46994 1.85H7C6.42978 1.85 5.88292 2.07652 5.47972 2.47972C5.07652 2.88293 4.85 3.42979 4.85 4V6.005V6.155H5H19H19.15V6.005C19.15 5.43479 18.9235 4.88793 18.5203 4.48472C18.1171 4.08152 17.5702 3.855 17 3.855H12.621L12.6208 3.855C12.044 3.85579 11.4808 3.68051 11.0063 3.3526L11.0062 3.35254L9.12219 2.05254ZM5 7.85H4.85V8V11C4.85 11.5702 5.07652 12.1171 5.47972 12.5203C5.88292 12.9235 6.42978 13.15 7 13.15H17C17.5702 13.15 18.1171 12.9235 18.5203 12.5203C18.9235 12.1171 19.15 11.5702 19.15 11V8V7.85H19H5ZM11.3611 21.9562C11.5502 22.0826 11.7726 22.15 12 22.15C12.305 22.15 12.5975 22.0288 12.8132 21.8132C13.0288 21.5975 13.15 21.305 13.15 21C13.15 20.7726 13.0826 20.5502 12.9562 20.3611C12.8298 20.172 12.6502 20.0246 12.4401 19.9375C12.23 19.8505 11.9987 19.8277 11.7756 19.8721C11.5526 19.9165 11.3477 20.026 11.1868 20.1868C11.026 20.3477 10.9165 20.5526 10.8721 20.7756C10.8277 20.9987 10.8505 21.23 10.9375 21.4401C11.0246 21.6502 11.172 21.8298 11.3611 21.9562Z" fill="url(#paint0_linear_2048_391)" stroke="white" stroke-width="0.3"/>
</g>
<defs>
<linearGradient id="paint0_linear_2048_391" x1="1.71427" y1="3.9995" x2="19.5456" y2="19.402" gradientUnits="userSpaceOnUse">
<stop offset="0.000131968" stop-color="#627FE7"/>
<stop offset="1" stop-color="#3962CA"/>
</linearGradient>
<clipPath id="clip0_2048_391">
<rect width="24" height="24" fill="white"/>
</clipPath>
</defs>
</svg>
