<svg width="20" height="20" viewBox="0 0 20 20" fill="none" xmlns="http://www.w3.org/2000/svg">
<g clip-path="url(#clip0_2048_546)">
<path d="M11.3504 19.9609H8.1413C7.60528 19.9609 7.16925 19.5258 7.16925 18.9908V11.7667H5.297C4.76098 11.7667 4.32495 11.3313 4.32495 10.7965V7.70096C4.32495 7.16599 4.76098 6.7308 5.297 6.7308H7.16925V5.18066C7.16925 3.64365 7.65283 2.33597 8.56755 1.39923C9.4864 0.458221 10.7705 -0.0390625 12.281 -0.0390625L14.7284 -0.0350952C15.2635 -0.0341797 15.6988 0.401001 15.6988 0.935059V3.8092C15.6988 4.34418 15.2629 4.77936 14.727 4.77936L13.0792 4.77997C12.5767 4.77997 12.4487 4.88052 12.4214 4.91135C12.3763 4.96246 12.3226 5.10696 12.3226 5.50598V6.73065H14.6032C14.7749 6.73065 14.9412 6.77292 15.0842 6.85257C15.3926 7.02454 15.5843 7.3497 15.5843 7.70111L15.5831 10.7967C15.5831 11.3313 15.147 11.7665 14.611 11.7665H12.3226V18.9908C12.3226 19.5258 11.8864 19.9609 11.3504 19.9609ZM8.34403 18.7885H11.1477V11.2418C11.1477 10.8846 11.4389 10.594 11.7967 10.594H14.4083L14.4093 7.90329H11.7965C11.4388 7.90329 11.1477 7.61276 11.1477 7.25555V5.50598C11.1477 5.04791 11.1943 4.52698 11.5407 4.13544C11.9593 3.66211 12.619 3.60748 13.0789 3.60748L14.524 3.60687V1.13709L12.2801 1.13342C9.85256 1.13342 8.34403 2.68433 8.34403 5.18066V7.25555C8.34403 7.61261 8.05294 7.90329 7.69518 7.90329H5.49973V10.594H7.69518C8.05294 10.594 8.34403 10.8846 8.34403 11.2418V18.7885ZM14.7261 1.13739H14.7263H14.7261Z" fill="url(#paint0_linear_2048_546)"/>
</g>
<defs>
<linearGradient id="paint0_linear_2048_546" x1="5.13736" y1="3.29373" x2="17.0243" y2="9.13317" gradientUnits="userSpaceOnUse">
<stop offset="0.000131968" stop-color="#627FE7"/>
<stop offset="1" stop-color="#3962CA"/>
</linearGradient>
<clipPath id="clip0_2048_546">
<rect width="20" height="20" fill="white"/>
</clipPath>
</defs>
</svg>
