<svg width="32" height="32" viewBox="0 0 32 32" fill="none" xmlns="http://www.w3.org/2000/svg">
<g clip-path="url(#clip0_2048_411)">
<path d="M31.7301 16.055C31.6483 16.0128 31.5566 15.994 31.4648 16.0006C31.3731 16.0072 31.2849 16.039 31.2101 16.0925L21.5001 23.0275V16.5C21.5001 16.409 21.4752 16.3197 21.4282 16.2418C21.3812 16.1638 21.3138 16.1002 21.2332 16.0577C21.1527 16.0153 21.0621 15.9956 20.9713 16.0009C20.8804 16.0061 20.7927 16.0361 20.7176 16.0875L12.2301 21.875L10.7501 7.94751C10.7371 7.8242 10.6787 7.71012 10.5863 7.62743C10.4939 7.54473 10.3741 7.49932 10.2501 7.50001H3.00008C2.87609 7.49932 2.75626 7.54473 2.66386 7.62743C2.57147 7.71012 2.5131 7.8242 2.50008 7.94751L7.91976e-05 31.4475C-0.0073058 31.5174 0.000144438 31.5881 0.0219434 31.655C0.0437423 31.7219 0.0793995 31.7834 0.126586 31.8355C0.173773 31.8877 0.231428 31.9293 0.295786 31.9576C0.360144 31.9859 0.429757 32.0004 0.500079 32H31.5001C31.6327 32 31.7599 31.9473 31.8536 31.8536C31.9474 31.7598 32.0001 31.6326 32.0001 31.5V16.5C32.0003 16.4082 31.9752 16.3181 31.9276 16.2396C31.8799 16.1611 31.8116 16.0972 31.7301 16.055ZM3.45008 8.50001H9.80008L11.3226 22.81L12.1951 31H1.05508L3.45008 8.50001ZM31.0001 31H13.2001L12.3501 23L20.5001 17.445V24C20.5 24.0918 20.5253 24.1819 20.5731 24.2603C20.6208 24.3387 20.6893 24.4025 20.7709 24.4446C20.8525 24.4867 20.9441 24.5055 21.0357 24.4989C21.1273 24.4924 21.2153 24.4608 21.2901 24.4075L31.0001 17.4725V31Z" fill="black"/>
<path d="M3.30257 5.54016C3.18719 5.54051 3.07524 5.50095 2.9857 5.42819C2.89615 5.35542 2.83453 5.25393 2.81128 5.14091C2.78803 5.0279 2.80458 4.91032 2.85813 4.80812C2.91168 4.70591 2.99892 4.62537 3.10507 4.58016C3.6751 4.32867 4.3145 4.28186 4.91507 4.44766C5.31367 4.57252 5.74424 4.54672 6.12507 4.37516C6.51182 4.2179 6.82754 3.92441 7.01257 3.55016C7.31193 3.00603 7.78442 2.57746 8.35508 2.33244C8.92574 2.08742 9.56188 2.03998 10.1626 2.19766C10.562 2.32245 10.9933 2.29666 11.3751 2.12516C11.7608 1.96633 12.0761 1.67329 12.2626 1.30016C12.556 0.750832 13.0303 0.319825 13.6051 0.0801567C13.6655 0.0542206 13.7304 0.0404367 13.7961 0.0395921C13.8619 0.0387475 13.9271 0.0508586 13.9882 0.075234C14.0492 0.0996093 14.1049 0.135772 14.152 0.181656C14.1991 0.227541 14.2366 0.282249 14.2626 0.342657C14.2885 0.403065 14.3023 0.46799 14.3031 0.533725C14.304 0.59946 14.2919 0.664717 14.2675 0.725772C14.2431 0.786827 14.207 0.842482 14.1611 0.889561C14.1152 0.93664 14.0605 0.97422 14.0001 1.00016C13.6138 1.1582 13.2983 1.45147 13.1126 1.82516C12.8187 2.37504 12.3434 2.80615 11.7676 3.04516C11.1984 3.29666 10.5598 3.34347 9.96007 3.17766C9.56133 3.05396 9.13119 3.07973 8.75007 3.25016C8.36213 3.40682 8.04596 3.70161 7.86257 4.07766C7.56304 4.62214 7.09001 5.0508 6.51876 5.29543C5.9475 5.54007 5.31083 5.58661 4.71007 5.42766C4.31147 5.30279 3.88091 5.32859 3.50007 5.50016C3.43764 5.52675 3.37044 5.54036 3.30257 5.54016Z" fill="black"/>
<path d="M10.0526 5.54016C9.93719 5.54051 9.82524 5.50096 9.7357 5.42819C9.64615 5.35542 9.58453 5.25393 9.56128 5.14091C9.53803 5.0279 9.55458 4.91032 9.60813 4.80812C9.66168 4.70591 9.74892 4.62538 9.85507 4.58016C10.4251 4.32867 11.0645 4.28186 11.6651 4.44766C12.0645 4.5644 12.4921 4.53872 12.8748 4.375C13.2574 4.21129 13.5712 3.91971 13.7626 3.55016C14.0619 3.00603 14.5344 2.57746 15.1051 2.33244C15.6757 2.08742 16.3119 2.03998 16.9126 2.19766C17.312 2.32245 17.7433 2.29666 18.1251 2.12516C18.5108 1.96633 18.8261 1.67329 19.0126 1.30016C19.306 0.750832 19.7803 0.319825 20.3551 0.0801567C20.4155 0.0542206 20.4804 0.0404367 20.5461 0.0395921C20.6119 0.0387475 20.6771 0.0508586 20.7382 0.075234C20.7992 0.0996093 20.8549 0.135772 20.902 0.181656C20.9491 0.227541 20.9866 0.282249 21.0126 0.342657C21.0385 0.403065 21.0523 0.46799 21.0531 0.533725C21.054 0.59946 21.0419 0.664718 21.0175 0.725772C20.9931 0.786827 20.957 0.842482 20.9111 0.889561C20.8652 0.93664 20.8105 0.974221 20.7501 1.00016C20.3638 1.1582 20.0484 1.45147 19.8626 1.82516C19.5687 2.37504 19.0934 2.80615 18.5176 3.04516C17.9484 3.29666 17.3098 3.34348 16.7101 3.17766C16.3113 3.05396 15.8812 3.07973 15.5001 3.25016C15.1121 3.40682 14.796 3.70161 14.6126 4.07766C14.313 4.62214 13.84 5.0508 13.2688 5.29544C12.6975 5.54007 12.0608 5.58661 11.4601 5.42766C11.0615 5.30279 10.6309 5.32859 10.2501 5.50016C10.1876 5.52676 10.1204 5.54036 10.0526 5.54016Z" fill="black"/>
</g>
<defs>
<clipPath id="clip0_2048_411">
<rect width="32" height="32" fill="white"/>
</clipPath>
</defs>
</svg>
