<svg width="20" height="20" viewBox="0 0 20 20" fill="none" xmlns="http://www.w3.org/2000/svg">
<path d="M14.5862 0H5.41381C2.42858 0 0 2.42858 0 5.41381V14.5863C0 17.5714 2.42858 20 5.41381 20H14.5863C17.5714 20 20 17.5714 20 14.5863V5.41381C20 2.42858 17.5714 0 14.5862 0V0ZM18.8275 14.5863C18.8275 16.9249 16.9249 18.8275 14.5862 18.8275H5.41381C3.0751 18.8275 1.17248 16.9249 1.17248 14.5863V5.41381C1.17248 3.0751 3.0751 1.17248 5.41381 1.17248H14.5863C16.9249 1.17248 18.8275 3.0751 18.8275 5.41381V14.5863Z" fill="url(#paint0_linear_2048_540)"/>
<path d="M10.0001 4.53149C6.98464 4.53149 4.53149 6.98465 4.53149 10.0001C4.53149 13.0155 6.98464 15.4687 10.0001 15.4687C13.0155 15.4687 15.4687 13.0155 15.4687 10.0001C15.4687 6.98465 13.0155 4.53149 10.0001 4.53149ZM10.0001 14.2962C7.63131 14.2962 5.70398 12.369 5.70398 10.0001C5.70398 7.63131 7.63131 5.70398 10.0001 5.70398C12.369 5.70398 14.2962 7.63131 14.2962 10.0001C14.2962 12.369 12.369 14.2962 10.0001 14.2962Z" fill="url(#paint1_linear_2048_540)"/>
<path d="M15.5993 2.58936C14.7082 2.58936 13.9834 3.3143 13.9834 4.20526C13.9834 5.09637 14.7082 5.82131 15.5993 5.82131C16.4904 5.82131 17.2154 5.09637 17.2154 4.20526C17.2154 3.31415 16.4904 2.58936 15.5993 2.58936ZM15.5993 4.64868C15.3549 4.64868 15.1559 4.4497 15.1559 4.20526C15.1559 3.96066 15.3549 3.76184 15.5993 3.76184C15.8439 3.76184 16.0429 3.96066 16.0429 4.20526C16.0429 4.4497 15.8439 4.64868 15.5993 4.64868Z" fill="url(#paint2_linear_2048_540)"/>
<defs>
<linearGradient id="paint0_linear_2048_540" x1="1.42856" y1="3.33278" x2="16.2874" y2="16.1682" gradientUnits="userSpaceOnUse">
<stop offset="0.000131968" stop-color="#627FE7"/>
<stop offset="1" stop-color="#3962CA"/>
</linearGradient>
<linearGradient id="paint1_linear_2048_540" x1="5.31271" y1="6.35406" x2="13.4384" y2="13.3732" gradientUnits="userSpaceOnUse">
<stop offset="0.000131968" stop-color="#627FE7"/>
<stop offset="1" stop-color="#3962CA"/>
</linearGradient>
<linearGradient id="paint2_linear_2048_540" x1="14.2143" y1="3.12793" x2="16.6154" y2="5.20211" gradientUnits="userSpaceOnUse">
<stop offset="0.000131968" stop-color="#627FE7"/>
<stop offset="1" stop-color="#3962CA"/>
</linearGradient>
</defs>
</svg>
