<svg width="8" height="15" viewBox="0 0 8 15" fill="none" xmlns="http://www.w3.org/2000/svg">
<path d="M0.505583 0.397418L0.505463 0.397537C0.425794 0.476555 0.362559 0.570566 0.319406 0.674146C0.276252 0.777727 0.254034 0.888827 0.254034 1.00104C0.254034 1.11325 0.276252 1.22435 0.319406 1.32793C0.362559 1.43151 0.425794 1.52552 0.505463 1.60454L0.505668 1.60474L5.10546 6.18454C5.10551 6.18459 5.10556 6.18464 5.10561 6.18468C5.21333 6.29156 5.29883 6.4187 5.35719 6.55877C5.41557 6.69891 5.44563 6.84922 5.44563 7.00104C5.44563 7.15285 5.41557 7.30316 5.35719 7.4433C5.29881 7.58343 5.21326 7.71062 5.10548 7.81752C5.10548 7.81753 5.10547 7.81753 5.10546 7.81754L0.505667 12.3973L0.505523 12.3975C0.345449 12.5564 0.255073 12.7725 0.254276 12.998C0.253479 13.2236 0.342327 13.4403 0.501274 13.6003C0.660221 13.7604 0.876247 13.8508 1.10183 13.8516C1.32736 13.8524 1.54398 13.7636 1.70404 13.6047C1.70408 13.6047 1.70411 13.6046 1.70414 13.6046L6.2937 9.01504C6.82741 8.48066 7.12719 7.75629 7.12719 7.00104C7.12719 6.24582 6.82744 5.52147 6.29377 4.9871L0.505583 0.397418ZM0.505583 0.397418C0.664841 0.239104 0.880275 0.150244 1.10483 0.150244C1.32932 0.150244 1.54469 0.239049 1.70393 0.397269C1.70398 0.397319 1.70403 0.397368 1.70408 0.397418L6.2937 4.98704L0.505583 0.397418Z" fill="url(#paint0_linear_3107_12)" stroke="black" stroke-width="0.3"/>
<defs>
<linearGradient id="paint0_linear_3107_12" x1="0.616399" y1="2.33342" x2="8.39821" y2="5.77729" gradientUnits="userSpaceOnUse">
<stop offset="0.000131968" stop-color="#7F74CC"/>
<stop offset="1" stop-color="#C195DF"/>
</linearGradient>
</defs>
</svg>
