<svg width="39" height="27" viewBox="0 0 39 27" fill="none" xmlns="http://www.w3.org/2000/svg">
<path d="M17.0003 27C15.8722 27 14.977 26.6743 14.3148 26.0228C13.6527 25.3472 13.3216 24.4544 13.3216 23.3445L13.3216 6.11662C13.3216 5.48928 13.199 4.87399 12.9537 4.27078C12.7085 3.66756 12.2916 3.17292 11.703 2.78686C11.1389 2.37667 10.3418 2.17158 9.31179 2.17158C8.35533 2.17158 7.57053 2.41287 6.95742 2.89544C6.3443 3.37801 5.89059 4.01742 5.59629 4.81367C5.32652 5.60992 5.17937 6.49062 5.15484 7.45576V7.92627L9.20143 7.92627V9.8807L5.15484 9.8807L5.15484 26.7828H2.65332L2.65332 9.8807H0.00463867L0.00463867 7.92627H2.65332V7.23861C2.65332 5.81501 2.89856 4.56032 3.38906 3.47453C3.87955 2.38874 4.6153 1.54424 5.59629 0.941018C6.57728 0.313673 7.80352 0 9.27501 0C11.4332 0 13.0641 0.530831 14.1677 1.59249C15.2713 2.65415 15.8231 4.00536 15.8231 5.64611L15.8231 22.5121C15.8231 23.4048 15.9825 24.008 16.3014 24.3217C16.6202 24.6354 17.0248 24.7922 17.5153 24.7922C18.0304 24.7922 18.5209 24.744 18.9868 24.6475C19.4528 24.5268 19.8084 24.4303 20.0536 24.3579L20.4951 26.3847C20.2744 26.4812 19.9556 26.5777 19.5386 26.6743C19.1462 26.7708 18.7293 26.8432 18.2879 26.8914C17.8464 26.9638 17.4172 27 17.0003 27Z" fill="url(#paint0_linear_2048_276)"/>
<path d="M32.3776 25.878C32.1814 25.9504 31.8749 26.0831 31.458 26.2761C31.041 26.4692 30.5383 26.6381 29.9497 26.7828C29.3611 26.9276 28.7234 27 28.0368 27C27.3255 27 26.6511 26.8673 26.0135 26.6019C25.4003 26.3365 24.9098 25.9383 24.542 25.4075C24.1741 24.8525 23.9902 24.1769 23.9902 23.3807L23.9902 9.8807H21.3415V7.92627H23.9902V1.5563L26.4917 1.5563V7.92627L30.9062 7.92627V9.8807L26.4917 9.8807L26.4917 22.693C26.5407 23.3686 26.786 23.8753 27.2274 24.2131C27.6934 24.5509 28.2207 24.7198 28.8093 24.7198C29.496 24.7198 30.1214 24.6113 30.6854 24.3941C31.2495 24.1528 31.5928 23.9839 31.7155 23.8874L32.3776 25.878Z" fill="url(#paint1_linear_2048_276)"/>
<path d="M35.5031 26.7828L35.5031 7.92627L38.0046 7.92627L38.0046 26.7828H35.5031ZM35.5031 3.98123V0.36193L38.0046 0.36193V3.98123L35.5031 3.98123Z" fill="url(#paint2_linear_2048_276)"/>
<defs>
<linearGradient id="paint0_linear_2048_276" x1="2.7189" y1="4.49926" x2="22.6129" y2="28.6854" gradientUnits="userSpaceOnUse">
<stop offset="0.000131968" stop-color="#7F74CC"/>
<stop offset="1" stop-color="#C195DF"/>
</linearGradient>
<linearGradient id="paint1_linear_2048_276" x1="2.7189" y1="4.49926" x2="22.6129" y2="28.6854" gradientUnits="userSpaceOnUse">
<stop offset="0.000131968" stop-color="#7F74CC"/>
<stop offset="1" stop-color="#C195DF"/>
</linearGradient>
<linearGradient id="paint2_linear_2048_276" x1="2.7189" y1="4.49926" x2="22.6129" y2="28.6854" gradientUnits="userSpaceOnUse">
<stop offset="0.000131968" stop-color="#7F74CC"/>
<stop offset="1" stop-color="#C195DF"/>
</linearGradient>
</defs>
</svg>
