<svg width="24" height="24" viewBox="0 0 24 24" fill="none" xmlns="http://www.w3.org/2000/svg">
<g clip-path="url(#clip0_2048_388)">
<path d="M18 16.15H18.15V16V5C18.15 4.16457 17.8181 3.36335 17.2274 2.77261C16.6366 2.18187 15.8354 1.85 15 1.85H9C8.16457 1.85 7.36335 2.18187 6.77261 2.77261C6.18187 3.36335 5.85 4.16457 5.85 5V16V16.15H6H18ZM6 17.85H5.85V18V19C5.85 19.8354 6.18187 20.6366 6.77261 21.2274C7.36335 21.8181 8.16457 22.15 9 22.15H15C15.8354 22.15 16.6366 21.8181 17.2274 21.2274C17.8181 20.6366 18.15 19.8354 18.15 19V18V17.85H18H6ZM5.57229 1.57229C6.48154 0.663034 7.7143 0.15154 9.00018 0.15L14.9999 0.15C16.2858 0.151563 17.5185 0.663055 18.4277 1.57229C19.337 2.48154 19.8485 3.7143 19.85 5.00018V18.9998C19.8485 20.2857 19.337 21.5185 18.4277 22.4277C17.5185 23.337 16.2857 23.8485 14.9998 23.85H9.00018C7.7143 23.8485 6.48154 23.337 5.57229 22.4277C4.66303 21.5185 4.15154 20.2857 4.15 18.9998L4.15 5.00009C4.15156 3.71425 4.66305 2.48152 5.57229 1.57229Z" fill="url(#paint0_linear_2048_388)" stroke="white" stroke-width="0.3"/>
<path d="M12.0002 20.9995C12.5525 20.9995 13.0003 20.5518 13.0003 19.9995C13.0003 19.4472 12.5525 18.9995 12.0002 18.9995C11.448 18.9995 11.0002 19.4472 11.0002 19.9995C11.0002 20.5518 11.448 20.9995 12.0002 20.9995Z" fill="url(#paint1_linear_2048_388)"/>
</g>
<defs>
<linearGradient id="paint0_linear_2048_388" x1="5.14285" y1="3.99935" x2="20.7305" y2="12.976" gradientUnits="userSpaceOnUse">
<stop offset="0.000131968" stop-color="#627FE7"/>
<stop offset="1" stop-color="#3962CA"/>
</linearGradient>
<linearGradient id="paint1_linear_2048_388" x1="11.1431" y1="19.3328" x2="12.629" y2="20.6163" gradientUnits="userSpaceOnUse">
<stop offset="0.000131968" stop-color="#627FE7"/>
<stop offset="1" stop-color="#3962CA"/>
</linearGradient>
<clipPath id="clip0_2048_388">
<rect width="24" height="24" fill="white"/>
</clipPath>
</defs>
</svg>
