<svg width="32" height="32" viewBox="0 0 32 32" fill="none" xmlns="http://www.w3.org/2000/svg">
<g clip-path="url(#clip0_2048_195)">
<path d="M30.25 29.5399H1.75005C1.71181 29.5437 1.67329 29.5437 1.63505 29.5399C1.20492 29.5293 0.794097 29.3591 0.482551 29.0623C0.325043 28.9034 0.201151 28.7143 0.118257 28.5064C0.0353624 28.2985 -0.00483804 28.0761 5.08616e-05 27.8524V3.78985C-0.0106219 3.5572 0.0273386 3.32488 0.111508 3.10773C0.195678 2.89058 0.324207 2.69336 0.488887 2.52868C0.653568 2.364 0.850781 2.23547 1.06793 2.1513C1.28508 2.06713 1.5174 2.02917 1.75005 2.03985H10.75C10.9827 2.02917 11.215 2.06713 11.4322 2.1513C11.6493 2.23547 11.8465 2.364 12.0112 2.52868C12.1759 2.69336 12.3044 2.89058 12.3886 3.10773C12.4728 3.32488 12.5107 3.5572 12.5 3.78985V5.03985C12.4894 5.14094 12.5015 5.24313 12.5355 5.33895C12.5694 5.43477 12.6243 5.5218 12.6962 5.59367C12.7681 5.66555 12.8551 5.72047 12.9509 5.75441C13.0468 5.78835 13.149 5.80045 13.25 5.78985H30C31.27 5.78985 32 6.51985 32 7.78985V27.7899C32.0107 28.0225 31.9728 28.2548 31.8886 28.472C31.8044 28.6891 31.6759 28.8863 31.5112 29.051C31.3465 29.2157 31.1493 29.3442 30.9322 29.4284C30.715 29.5126 30.4827 29.5505 30.25 29.5399ZM1.85755 28.5399H30.25C30.3511 28.5505 30.4533 28.5383 30.5491 28.5044C30.645 28.4705 30.732 28.4156 30.8039 28.3437C30.8757 28.2718 30.9307 28.1848 30.9646 28.089C30.9985 27.9931 31.0107 27.8909 31 27.7899V7.78985C31 7.06985 30.72 6.78985 30 6.78985H13.25C13.0174 6.80052 12.7851 6.76256 12.5679 6.67839C12.3508 6.59422 12.1536 6.46569 11.9889 6.30101C11.8242 6.13633 11.6957 5.93912 11.6115 5.72196C11.5273 5.50481 11.4894 5.27249 11.5 5.03985V3.78985C11.5107 3.68875 11.4985 3.58656 11.4646 3.49074C11.4307 3.39492 11.3758 3.3079 11.3039 3.23602C11.232 3.16414 11.145 3.10923 11.0492 3.07529C10.9533 3.04135 10.8511 3.02924 10.75 3.03985H1.75005C1.64895 3.02924 1.54676 3.04135 1.45095 3.07529C1.35513 3.10923 1.2681 3.16414 1.19622 3.23602C1.12434 3.3079 1.06943 3.39492 1.03549 3.49074C1.00155 3.58656 0.989442 3.68875 1.00005 3.78985V27.8524C0.996359 27.9415 1.01086 28.0305 1.04266 28.1139C1.07447 28.1973 1.12291 28.2733 1.18505 28.3373C1.26014 28.4054 1.34826 28.4576 1.44408 28.4907C1.5399 28.5238 1.64144 28.5371 1.74255 28.5299C1.78116 28.5281 1.81983 28.5315 1.85755 28.5399Z" fill="black"/>
<path d="M14.75 24H10.25C10.1174 24 9.99021 23.9473 9.89645 23.8536C9.80268 23.7598 9.75 23.6326 9.75 23.5V19C9.75 18.8674 9.80268 18.7402 9.89645 18.6464C9.99021 18.5527 10.1174 18.5 10.25 18.5H14.75C14.8826 18.5 15.0098 18.5527 15.1036 18.6464C15.1973 18.7402 15.25 18.8674 15.25 19V23.5C15.25 23.6326 15.1973 23.7598 15.1036 23.8536C15.0098 23.9473 14.8826 24 14.75 24ZM10.75 23H14.25V19.5H10.75V23Z" fill="black"/>
<path d="M21.75 24H17.25C17.1174 24 16.9902 23.9473 16.8964 23.8536C16.8027 23.7598 16.75 23.6326 16.75 23.5V19C16.75 18.8674 16.8027 18.7402 16.8964 18.6464C16.9902 18.5527 17.1174 18.5 17.25 18.5H21.75C21.8826 18.5 22.0098 18.5527 22.1036 18.6464C22.1973 18.7402 22.25 18.8674 22.25 19V23.5C22.25 23.6326 22.1973 23.7598 22.1036 23.8536C22.0098 23.9473 21.8826 24 21.75 24ZM17.75 23H21.25V19.5H17.75V23Z" fill="black"/>
<path d="M21.75 17H17.25C17.1174 17 16.9902 16.9473 16.8964 16.8536C16.8027 16.7598 16.75 16.6326 16.75 16.5V12C16.75 11.8674 16.8027 11.7402 16.8964 11.6464C16.9902 11.5527 17.1174 11.5 17.25 11.5H21.75C21.8826 11.5 22.0098 11.5527 22.1036 11.6464C22.1973 11.7402 22.25 11.8674 22.25 12V16.5C22.25 16.6326 22.1973 16.7598 22.1036 16.8536C22.0098 16.9473 21.8826 17 21.75 17ZM17.75 16H21.25V12.5H17.75V16Z" fill="black"/>
<path d="M14.75 17H10.25C10.1174 17 9.99021 16.9473 9.89645 16.8536C9.80268 16.7598 9.75 16.6326 9.75 16.5V12C9.75 11.8674 9.80268 11.7402 9.89645 11.6464C9.99021 11.5527 10.1174 11.5 10.25 11.5H14.75C14.8826 11.5 15.0098 11.5527 15.1036 11.6464C15.1973 11.7402 15.25 11.8674 15.25 12V16.5C15.25 16.6326 15.1973 16.7598 15.1036 16.8536C15.0098 16.9473 14.8826 17 14.75 17ZM10.75 16H14.25V12.5H10.75V16Z" fill="black"/>
</g>
<defs>
<clipPath id="clip0_2048_195">
<rect width="32" height="32" fill="white"/>
</clipPath>
</defs>
</svg>
