<svg width="20" height="20" viewBox="0 0 20 20" fill="none" xmlns="http://www.w3.org/2000/svg">
<g clip-path="url(#clip0_2603_180)">
<path d="M19.2443 13.949C19.7272 14.4333 19.9984 15.0893 19.9984 15.7732C19.9984 16.4571 19.7272 17.1131 19.2443 17.5974L18.486 18.4715C11.661 25.0057 -4.94734 8.40153 1.48598 1.55487L2.44431 0.721533C2.92912 0.252097 3.57926 -0.00759314 4.25407 -0.001355C4.92888 0.00488313 5.5741 0.276548 6.05014 0.754866C6.07598 0.780699 7.62014 2.78653 7.62014 2.78653C8.07833 3.26789 8.33339 3.90731 8.33231 4.57187C8.33122 5.23643 8.07407 5.87501 7.61431 6.35487L6.64931 7.5682C7.18335 8.86579 7.96853 10.0451 8.95973 11.0383C9.95093 12.0315 11.1286 12.819 12.4251 13.3557L13.646 12.3849C14.1259 11.9255 14.7644 11.6686 15.4287 11.6677C16.0931 11.6668 16.7323 11.9218 17.2135 12.3799C17.2135 12.3799 19.2185 13.9232 19.2443 13.949ZM18.0976 15.1607C18.0976 15.1607 16.1035 13.6265 16.0776 13.6007C15.906 13.4305 15.674 13.335 15.4322 13.335C15.1905 13.335 14.9585 13.4305 14.7868 13.6007C14.7643 13.624 13.0835 14.9632 13.0835 14.9632C12.9702 15.0534 12.8354 15.1125 12.6923 15.1347C12.5493 15.1569 12.4029 15.1414 12.2676 15.0899C10.588 14.4645 9.06242 13.4855 7.79417 12.2191C6.52592 10.9527 5.54465 9.42856 4.91681 7.74987C4.86114 7.61275 4.843 7.46327 4.86423 7.31682C4.88547 7.17036 4.94532 7.0322 5.03764 6.91653C5.03764 6.91653 6.37681 5.23487 6.39931 5.2132C6.56953 5.04152 6.66504 4.80955 6.66504 4.56778C6.66504 4.32602 6.56953 4.09404 6.39931 3.92237C6.37348 3.89737 4.83931 1.90153 4.83931 1.90153C4.66506 1.74529 4.43765 1.66161 4.20369 1.66766C3.96972 1.6737 3.74693 1.769 3.58098 1.93403L2.62265 2.76737C-2.07901 8.4207 12.3135 22.0149 17.2676 17.3332L18.0268 16.4582C18.2047 16.2934 18.3115 16.0659 18.3248 15.8238C18.338 15.5817 18.2565 15.3439 18.0976 15.1607Z" fill="url(#paint0_linear_2603_180)"/>
</g>
<defs>
<linearGradient id="paint0_linear_2603_180" x1="1.45882" y1="3.32585" x2="16.2932" y2="16.1392" gradientUnits="userSpaceOnUse">
<stop offset="0.000131968" stop-color="#627FE7"/>
<stop offset="1" stop-color="#3962CA"/>
</linearGradient>
<clipPath id="clip0_2603_180">
<rect width="20" height="20" fill="white"/>
</clipPath>
</defs>
</svg>
