<svg width="54" height="28" viewBox="0 0 54 28" fill="none" xmlns="http://www.w3.org/2000/svg">
<path d="M15.7315 9.99453H13.6096L12.4536 15.9097H14.3382C15.5817 15.9097 16.5106 15.6752 17.1248 15.2044C17.7288 14.7421 18.1411 13.9564 18.3514 12.8658C18.5601 11.8188 18.4642 11.0767 18.0805 10.6412C17.6851 10.214 16.9043 9.9962 15.7315 9.9962V9.99453ZM26.9231 -0.0986328C12.0498 -0.0986328 0 6.2186 0 14C0 21.7813 12.0498 28.0986 26.9231 28.0986C41.7964 28.0986 53.8462 21.7813 53.8462 14C53.8462 6.2186 41.7964 -0.0986328 26.9231 -0.0986328ZM19.605 16.548C19.0262 17.1058 18.3178 17.5246 17.5538 17.7759C16.8 18.0121 15.8375 18.1428 14.6714 18.1428H12.0144L11.2875 21.8952H8.19303L10.9543 7.76985H16.8959C18.6846 7.76985 19.9904 8.23221 20.8132 9.1653C21.6293 10.0984 21.8834 11.4084 21.5486 13.0836C21.4274 13.747 21.1901 14.3836 20.8671 14.9783C20.5423 15.5428 20.1317 16.0689 19.6034 16.548H19.605ZM28.6411 18.1428L29.8594 11.8892C29.999 11.1806 29.9469 10.6948 29.6995 10.4301C29.4639 10.1771 28.9457 10.0465 28.1582 10.0465H25.7132L24.1365 18.1428H21.0606L23.8202 4.00899H26.8877L26.1524 7.76985H28.8868C30.6149 7.76985 31.7962 8.06636 32.4457 8.65938C33.1036 9.26246 33.2954 10.2291 33.043 11.5659L31.7524 18.1444L28.6411 18.1428ZM45.6767 13.0836C45.5555 13.747 45.3267 14.3836 44.9952 14.9783C44.6788 15.5428 44.2599 16.0689 43.7416 16.548C43.1543 17.0974 42.4543 17.5246 41.682 17.7759C40.9281 18.0121 39.9639 18.1428 38.7995 18.1428H36.1526L35.4173 21.8952H32.3228L35.0841 7.76985H41.0257C42.8144 7.76985 44.1202 8.2322 44.943 9.17535C45.7591 10.1001 46.0132 11.4084 45.6784 13.0836H45.6767ZM39.8596 9.99453H37.7462L36.5901 15.9097H38.4663C39.7183 15.9097 40.6471 15.6752 41.2529 15.2044C41.8654 14.7421 42.2776 13.9564 42.4897 12.8658C42.6983 11.8188 42.6024 11.0767 42.207 10.6412C41.8233 10.214 41.0341 9.9962 39.8596 9.9962V9.99453Z" fill="white"/>
</svg>
