<svg width="24" height="24" viewBox="0 0 24 24" fill="none" xmlns="http://www.w3.org/2000/svg">
<g clip-path="url(#clip0_2048_382)">
<path d="M21.4499 13.6523L21.556 13.7583L22.399 14.6013L22.4008 14.6032L22.4008 14.6032C22.4792 14.6844 22.573 14.7491 22.6767 14.7937C22.7804 14.8382 22.892 14.8617 23.0048 14.8627C23.1177 14.8636 23.2296 14.8421 23.3341 14.7994C23.4385 14.7567 23.5334 14.6935 23.6133 14.6137C23.6931 14.5339 23.7562 14.439 23.7989 14.3346C23.8417 14.2301 23.8632 14.1182 23.8622 14.0053C23.8612 13.8925 23.8377 13.7809 23.7932 13.6772C23.7487 13.5735 23.6839 13.4797 23.6027 13.4013L23.6008 13.3995L23.6009 13.3995L10.6027 0.401301C10.6024 0.401016 10.6021 0.400732 10.6018 0.400449C10.4416 0.246152 10.2273 0.160794 10.0048 0.162727C9.78196 0.164664 9.56877 0.254058 9.41117 0.411655C9.25357 0.569251 9.16418 0.782442 9.16224 1.00531C9.16031 1.22776 9.24566 1.44209 9.39995 1.60231L10.242 2.44434L10.348 2.55034L10.2421 2.6564L8.69406 4.20641L8.58732 4.31328L8.48119 4.20581L5.63413 1.32276C5.47484 1.1673 5.26091 1.08053 5.0383 1.08109C4.81528 1.08167 4.60143 1.16986 4.44284 1.32666C4.28426 1.48346 4.19365 1.69631 4.19056 1.9193C4.18747 2.14191 4.27184 2.35682 4.4255 2.51787L7.28061 5.40697L7.38542 5.51302L7.28 5.61846L1.571 11.3285L1.57099 11.3285C0.661456 12.238 0.150488 13.4716 0.150488 14.7579C0.150488 16.0442 0.661456 17.2778 1.57099 18.1873L1.571 18.1874L5.81286 22.4302L21.4499 13.6523ZM21.4499 13.6523L21.3439 13.7583L12.672 22.4302M21.4499 13.6523L12.672 22.4302M12.672 22.4302C11.7616 23.3384 10.5283 23.8484 9.24242 23.8484M12.672 22.4302L9.24242 23.8484M9.24242 23.8484C7.95663 23.8484 6.72332 23.3384 5.813 22.4304L9.24242 23.8484ZM20.142 12.5565L20.2481 12.4504L20.142 12.3443L11.656 3.85834L11.5499 3.75224L11.4438 3.85838L9.88682 5.41638L9.78149 5.52177L9.88619 5.6278L14.6042 10.4058L14.604 10.406L14.6113 10.4126C14.6984 10.4899 14.7686 10.5842 14.8177 10.6898C14.8667 10.7954 14.8936 10.9099 14.8966 11.0263C14.8996 11.1426 14.8786 11.2584 14.8351 11.3663C14.7915 11.4743 14.7262 11.5721 14.6432 11.6538C14.5603 11.7355 14.4614 11.7992 14.3528 11.8411C14.2442 11.883 14.1281 11.9022 14.0118 11.8974C13.8955 11.8926 13.7814 11.8639 13.6766 11.8132C13.5718 11.7625 13.4786 11.6908 13.4026 11.6026L13.4029 11.6023L13.3956 11.595L8.68661 6.82997L8.58055 6.72265L8.47386 6.82934L2.77386 12.5293C2.4813 12.8218 2.24923 13.1691 2.09089 13.5513C1.93256 13.9335 1.85106 14.3432 1.85106 14.7569C1.85106 15.1706 1.93256 15.5803 2.09089 15.9625C2.24922 16.3447 2.48129 16.692 2.77384 16.9845C2.77385 16.9845 2.77386 16.9845 2.77386 16.9845L7.01584 21.2275L7.01602 21.2276C7.60741 21.8172 8.40839 22.1482 9.24342 22.1482C10.0785 22.1482 10.8794 21.8172 11.4708 21.2276L11.471 21.2275L20.142 12.5565ZM22.2045 18.5092C22.2988 18.643 22.3959 18.7786 22.4937 18.9151C22.7778 19.3115 23.0676 19.716 23.3085 20.1091C23.6354 20.6427 23.8499 21.1218 23.8499 21.5004C23.8499 22.1237 23.6023 22.7214 23.1616 23.1621C22.7209 23.6028 22.1232 23.8504 21.4999 23.8504C20.8767 23.8504 20.2789 23.6028 19.8382 23.1621C19.3975 22.7214 19.1499 22.1237 19.1499 21.5004C19.1499 21.3352 19.2018 21.1341 19.2997 20.9013C19.3971 20.6701 19.5357 20.4175 19.6995 20.1519C19.9319 19.7749 20.2085 19.3821 20.4811 18.9948C20.5943 18.834 20.7068 18.6742 20.8152 18.5168C20.8931 18.4051 20.9966 18.3138 21.117 18.2505C21.2376 18.1871 21.3717 18.1536 21.5079 18.1528C21.6441 18.1521 21.7786 18.1841 21.8998 18.2461C22.021 18.3082 22.1255 18.3984 22.2045 18.5092Z" fill="url(#paint0_linear_2048_382)" stroke="white" stroke-width="0.3"/>
<path d="M22.5 21.399C22.5 21.0594 22.122 20.5814 21.8308 20.1678C21.7936 20.1156 21.7444 20.0731 21.6873 20.0439C21.6302 20.0147 21.567 19.9997 21.5029 20C21.4388 20.0004 21.3757 20.0161 21.3189 20.046C21.2622 20.0758 21.2134 20.1188 21.1768 20.1714C20.8844 20.5958 20.5 21.089 20.5 21.399C20.5 21.6643 20.6054 21.9186 20.7929 22.1061C20.9804 22.2937 21.2348 22.399 21.5 22.399C21.7652 22.399 22.0196 22.2937 22.2071 22.1061C22.3946 21.9186 22.5 21.6643 22.5 21.399Z" fill="white"/>
</g>
<defs>
<linearGradient id="paint0_linear_2048_382" x1="1.7156" y1="4.00999" x2="19.5397" y2="19.4223" gradientUnits="userSpaceOnUse">
<stop offset="0.000131968" stop-color="#627FE7"/>
<stop offset="1" stop-color="#3962CA"/>
</linearGradient>
<clipPath id="clip0_2048_382">
<rect width="24" height="24" fill="white"/>
</clipPath>
</defs>
</svg>
