<svg width="24" height="24" viewBox="0 0 24 24" fill="none" xmlns="http://www.w3.org/2000/svg">
<g clip-path="url(#clip0_2048_362)">
<path d="M12.0089 1.84989C11.7268 1.84985 11.4449 1.86552 11.1645 1.89681L11.1636 1.89692C9.80892 2.05691 8.52829 2.60107 7.47282 3.46519C6.41735 4.3293 5.63109 5.47731 5.20682 6.77373C4.78256 8.07015 4.73799 9.46088 5.07839 10.7818C5.41878 12.1027 6.12993 13.2987 7.12791 14.2286L7.12913 14.2297C8.26025 15.2607 9.09143 16.5784 9.5346 18.0433L9.56684 18.1499H9.67817H11.0002H11.1502V17.9999V10.8159V10.7098L11.0502 10.6745C10.4964 10.4787 10.0167 10.1166 9.67655 9.63773C9.33652 9.15896 9.15268 8.58684 9.15017 7.99962C9.15024 7.77428 9.23979 7.55819 9.39913 7.39885C9.55854 7.23944 9.77474 7.14989 10.0002 7.14989C10.2256 7.14989 10.4418 7.23944 10.6012 7.39885C10.7606 7.55825 10.8502 7.77445 10.8502 7.99989C10.8502 8.30489 10.9713 8.59739 11.187 8.81306C11.4027 9.02873 11.6952 9.14989 12.0002 9.14989C12.3052 9.14989 12.5977 9.02873 12.8133 8.81306C13.029 8.59739 13.1502 8.30489 13.1502 7.99989C13.1502 7.77445 13.2397 7.55825 13.3991 7.39885C13.5585 7.23944 13.7747 7.14989 14.0002 7.14989C14.2256 7.14989 14.4418 7.23944 14.6012 7.39885C14.7605 7.55817 14.8501 7.77421 14.8502 7.99951C14.8477 8.58677 14.6638 9.15893 14.3238 9.63773C13.9837 10.1166 13.5039 10.4787 12.9502 10.6745L12.8502 10.7098V10.8159V17.9999V18.1499H13.0002H14.2462H14.3602L14.3907 18.04C14.781 16.6341 15.5719 15.3725 16.6665 14.4089H16.6696L16.712 14.3718C17.4737 13.705 18.0849 12.8839 18.5053 11.9629C18.9256 11.042 19.1453 10.0422 19.15 9.0299C19.1546 8.01758 18.944 7.01584 18.5321 6.09109C18.1203 5.16644 17.5167 4.33988 16.7613 3.66618C15.4574 2.4921 13.7635 1.84473 12.0089 1.84989ZM12.0089 1.84989C12.0089 1.84989 12.0088 1.84989 12.0087 1.84989L12.0092 1.99989L12.0092 1.84989C12.0091 1.84989 12.009 1.84989 12.0089 1.84989ZM17.8942 2.39775L18.0188 2.50906C18.8957 3.32194 19.5991 4.30463 20.0859 5.39805C20.5955 6.54275 20.8561 7.78267 20.8503 9.03567C20.8446 10.2887 20.5726 11.5261 20.0525 12.6661C19.5326 13.8054 18.7768 14.8214 17.8349 15.6467C17.228 16.1485 16.7364 16.7753 16.3939 17.4845C16.0511 18.1943 15.8656 18.9698 15.8502 19.758H15.8502V19.7609V20.3097C15.8492 21.2483 15.4759 22.1482 14.8122 22.8119C14.1485 23.4756 13.2486 23.8489 12.31 23.8499H11.6903C10.7517 23.8489 9.85187 23.4756 9.18818 22.8119C8.52449 22.1482 8.15119 21.2483 8.15017 20.3097V20.1489H8.15021L8.15013 20.1455C8.12987 19.2575 7.92536 18.3834 7.54957 17.5785C7.17405 16.7743 6.63568 16.0568 5.96853 15.4714C4.93227 14.5138 4.14182 13.3207 3.66403 11.993C3.18602 10.6648 3.03503 9.24092 3.22383 7.84195L3.22389 7.84148C3.43413 6.24581 4.07554 4.73768 5.07907 3.47939C6.08261 2.2211 7.41028 1.2603 8.91921 0.700378C10.4281 0.140459 12.0612 0.00262393 13.6426 0.301707C15.2241 0.60079 16.694 1.32547 17.8942 2.39775ZM12.3102 22.1499H12.3104C12.7981 22.1493 13.2658 21.9553 13.6107 21.6104C13.9556 21.2655 14.1496 20.7978 14.1502 20.3101V20.3099V19.9999V19.8499H14.0002H9.99217H9.83914L9.8422 20.0029C9.84271 20.0285 9.84473 20.1066 9.8466 20.1776L9.84912 20.2725L9.84992 20.3026L9.85015 20.311L9.85018 20.312C9.85127 20.7991 10.0452 21.2659 10.3897 21.6104C10.7346 21.9553 11.2022 22.1493 11.69 22.1499H11.6902H12.3102Z" fill="url(#paint0_linear_2048_362)" stroke="white" stroke-width="0.3"/>
</g>
<defs>
<linearGradient id="paint0_linear_2048_362" x1="4.28097" y1="3.99729" x2="20.732" y2="14.6576" gradientUnits="userSpaceOnUse">
<stop offset="0.000131968" stop-color="#627FE7"/>
<stop offset="1" stop-color="#3962CA"/>
</linearGradient>
<clipPath id="clip0_2048_362">
<rect width="24" height="24" fill="white"/>
</clipPath>
</defs>
</svg>
