<svg width="32" height="32" viewBox="0 0 32 32" fill="none" xmlns="http://www.w3.org/2000/svg">
<g clip-path="url(#clip0_2048_339)">
<path d="M30.0001 6.0003H13.2501C13.149 6.0109 13.0468 5.9988 12.9509 5.96486C12.8551 5.93092 12.7681 5.876 12.6962 5.80412C12.6243 5.73224 12.5694 5.64522 12.5355 5.5494C12.5015 5.45358 12.4894 5.35139 12.5001 5.2503V3.7503C12.5107 3.51765 12.4728 3.28533 12.3886 3.06818C12.3044 2.85103 12.1759 2.65381 12.0112 2.48913C11.8465 2.32445 11.6493 2.19592 11.4322 2.11175C11.215 2.02758 10.9827 1.98962 10.7501 2.0003H1.75005C1.5174 1.98962 1.28508 2.02758 1.06793 2.11175C0.850781 2.19592 0.653568 2.32445 0.488887 2.48913C0.324207 2.65381 0.195678 2.85103 0.111508 3.06818C0.0273386 3.28533 -0.0106219 3.51765 5.08621e-05 3.7503V28.0628C0.00279788 28.606 0.21818 29.1265 0.600051 29.5128C0.874144 29.7894 1.23918 29.9572 1.62755 29.9853C1.66761 29.9953 1.70875 30.0004 1.75005 30.0003H30.2501C31.3301 30.0003 32 28.9628 32 28.0003V8.0003C32 6.7303 31.2701 6.0003 30.0001 6.0003ZM13.9751 21.0953L21.4576 16.8028L31.0001 21.5353V27.9453L13.9751 21.0953ZM1.75005 3.0003H10.7501C10.8511 2.98969 10.9533 3.00179 11.0492 3.03573C11.145 3.06967 11.232 3.12459 11.3039 3.19647C11.3758 3.26835 11.4307 3.35537 11.4646 3.45119C11.4986 3.54701 11.5107 3.6492 11.5001 3.7503V5.2503C11.4894 5.48294 11.5273 5.71526 11.6115 5.93241C11.6957 6.14957 11.8242 6.34678 11.9889 6.51146C12.1536 6.67614 12.3508 6.80467 12.5679 6.88884C12.7851 6.97301 13.0174 7.01097 13.2501 7.0003H30.0001C30.7201 7.0003 31.0001 7.2803 31.0001 8.0003V20.4178L21.6626 15.7878C21.5892 15.7512 21.508 15.7332 21.426 15.7354C21.344 15.7375 21.2639 15.7598 21.1926 15.8003L12.7926 20.6203L8.71255 18.9803C8.64248 18.9521 8.56695 18.9402 8.49161 18.9454C8.41627 18.9506 8.34309 18.9728 8.27755 19.0103L1.00005 23.1703V3.7503C0.989442 3.6492 1.00155 3.54701 1.03549 3.45119C1.06943 3.35537 1.12435 3.26835 1.19622 3.19647C1.2681 3.12459 1.35513 3.06967 1.45095 3.03573C1.54676 3.00179 1.64895 2.98969 1.75005 3.0003ZM1.85755 29.0003C1.82175 28.998 1.78585 28.998 1.75005 29.0003C1.66782 29.0006 1.58639 28.9841 1.51074 28.9519C1.43508 28.9196 1.3668 28.8723 1.31005 28.8128C1.11544 28.6117 1.00692 28.3426 1.00755 28.0628V24.3128H1.03255L8.56505 20.0003L30.6126 28.8703C30.5096 28.9528 30.382 28.9985 30.2501 29.0003H1.85755Z" fill="black"/>
<path d="M10.1875 16.0703C10.9436 16.0703 11.6828 15.8461 12.3114 15.4259C12.9401 15.0058 13.43 14.4086 13.7193 13.71C14.0085 13.0114 14.084 12.2427 13.9364 11.5011C13.7887 10.7596 13.4244 10.0785 12.8895 9.544C12.3547 9.00951 11.6733 8.64565 10.9317 8.49844C10.19 8.35123 9.42138 8.42728 8.72295 8.71698C8.02452 9.00668 7.4277 9.49701 7.00798 10.1259C6.58826 10.7549 6.3645 11.4942 6.36499 12.2503C6.36698 13.2633 6.77042 14.2341 7.48692 14.9501C8.20342 15.6662 9.17454 16.069 10.1875 16.0703ZM10.1875 9.4253C10.7456 9.4253 11.2912 9.59077 11.7553 9.9008C12.2194 10.2108 12.5812 10.6515 12.7949 11.1671C13.0086 11.6827 13.0646 12.2501 12.9559 12.7975C12.8472 13.345 12.5787 13.8479 12.1842 14.2427C11.7897 14.6376 11.287 14.9066 10.7397 15.0158C10.1923 15.125 9.62488 15.0694 9.1091 14.8562C8.59331 14.6429 8.15232 14.2815 7.84188 13.8177C7.53144 13.3539 7.36548 12.8084 7.36499 12.2503C7.36565 11.5017 7.66315 10.7839 8.19226 10.2543C8.72137 9.72476 9.43889 9.42662 10.1875 9.4253Z" fill="black"/>
</g>
<defs>
<clipPath id="clip0_2048_339">
<rect width="32" height="32" fill="white"/>
</clipPath>
</defs>
</svg>
