<svg width="24" height="24" viewBox="0 0 24 24" fill="none" xmlns="http://www.w3.org/2000/svg">
<g clip-path="url(#clip0_2048_395)">
<path d="M18.5336 2.28303L18.5337 2.28308C19.4999 2.60402 20.3403 3.22128 20.9357 4.04715C21.531 4.87303 21.8509 5.86551 21.85 6.88359V6.88373V12.0007C21.85 15.7178 19.5889 18.6149 17.2532 20.6147C14.9198 22.6125 12.5362 23.6932 12.3454 23.7775L12.3451 23.7776C12.2365 23.8259 12.1189 23.8509 12 23.8509C11.8811 23.8509 11.7636 23.8259 11.6549 23.7776L11.6546 23.7775C11.4638 23.6932 9.08022 22.6125 6.74681 20.6147C4.41111 18.6149 2.15 15.7178 2.15 12.0007L2.15 6.88373L2.15 6.88359C2.14907 5.86551 2.46899 4.87303 3.06433 4.04715C3.65966 3.22128 4.50012 2.60402 5.46629 2.28308L5.46645 2.28303L11.7314 0.194043C11.7314 0.194038 11.7314 0.194032 11.7315 0.194027C11.9058 0.135976 12.0942 0.135976 12.2686 0.194027C12.2686 0.194032 12.2686 0.194038 12.2686 0.194043L18.5336 2.28303ZM22 12.0007V6.88373L5.419 2.14073C4.42291 2.47161 3.55642 3.10799 2.94265 3.95944C2.32887 4.81089 1.99904 5.83412 2 6.88373V12.0007C2 19.5637 11.2 23.7407 11.594 23.9147C11.7218 23.9715 11.8601 24.0009 12 24.0009C12.1399 24.0009 12.2782 23.9715 12.406 23.9147C12.8 23.7407 22 19.5637 22 12.0007ZM11.9322 22.0235L12.0002 22.058L12.0681 22.0234C12.9143 21.5925 14.9284 20.4764 16.7331 18.7791C18.5358 17.0837 20.15 14.7885 20.15 12.0007V6.88373C20.1499 6.22251 19.9418 5.57808 19.5551 5.04175C19.1684 4.50541 18.6227 4.10436 17.9954 3.89542L12.0474 1.91243L12 1.89661L11.9526 1.91243L6.0046 3.89542C6.00459 3.89542 6.00457 3.89543 6.00456 3.89543C5.37725 4.10438 4.83159 4.50542 4.4449 5.04175C4.05819 5.57808 3.85006 6.22251 3.85 6.88372V6.88373V12.0007C3.85 14.7955 5.46357 17.0914 7.26615 18.7855C9.07065 20.4815 11.0849 21.5941 11.9322 22.0235Z" fill="url(#paint0_linear_2048_395)" stroke="white" stroke-width="0.3"/>
<path d="M11.078 14.5466H11.111C11.3591 14.5474 11.6048 14.4989 11.834 14.404C12.0632 14.3091 12.2712 14.1696 12.446 13.9936L11.078 14.5466ZM11.0038 12.6044L11.1099 12.7151L11.2183 12.6065L15.406 8.40674C15.4854 8.32755 15.5795 8.26476 15.6832 8.22197C15.7868 8.17917 15.8978 8.15721 16.0099 8.15732C16.1221 8.15744 16.233 8.17964 16.3366 8.22266C16.4401 8.26567 16.5342 8.32866 16.6134 8.40802C16.6926 8.48738 16.7553 8.58156 16.7981 8.68519C16.8409 8.78881 16.8629 8.89985 16.8628 9.01197C16.8627 9.12408 16.8405 9.23508 16.7974 9.33861C16.7544 9.44215 16.6914 9.5362 16.6121 9.61539L16.612 9.6155L12.34 13.8875L12.3396 13.8879C12.1788 14.0498 11.9874 14.1781 11.7766 14.2654C11.5658 14.3528 11.3397 14.3973 11.1115 14.3966H11.111H11.0792C10.8468 14.3929 10.6175 14.3421 10.4052 14.2474C10.1925 14.1525 10.0013 14.0155 9.84311 13.8447L9.84313 13.8447L9.8412 13.8426L7.5352 11.4426L7.53524 11.4426L7.5325 11.4399C7.45185 11.3602 7.38797 11.2651 7.34463 11.1603C7.30129 11.0555 7.27937 10.943 7.28015 10.8296C7.28093 10.7162 7.3044 10.6041 7.34918 10.4999C7.39396 10.3957 7.45915 10.3015 7.54089 10.2228C7.62264 10.1442 7.71929 10.0828 7.82516 10.0421C7.93103 10.0014 8.04397 9.98227 8.15733 9.9859C8.27069 9.98953 8.38218 10.0158 8.48523 10.0632C8.58828 10.1106 8.6808 10.1781 8.75735 10.2618L8.75732 10.2618L8.75977 10.2644L11.0038 12.6044Z" fill="url(#paint1_linear_2048_395)" stroke="white" stroke-width="0.3"/>
</g>
<defs>
<linearGradient id="paint0_linear_2048_395" x1="3.42856" y1="3.9999" x2="20.5192" y2="16.3024" gradientUnits="userSpaceOnUse">
<stop offset="0.000131968" stop-color="#627FE7"/>
<stop offset="1" stop-color="#3962CA"/>
</linearGradient>
<linearGradient id="paint1_linear_2048_395" x1="7.83602" y1="9.09702" x2="12.577" y2="15.2863" gradientUnits="userSpaceOnUse">
<stop offset="0.000131968" stop-color="#627FE7"/>
<stop offset="1" stop-color="#3962CA"/>
</linearGradient>
<clipPath id="clip0_2048_395">
<rect width="24" height="24" fill="white"/>
</clipPath>
</defs>
</svg>
