<svg width="24" height="24" viewBox="0 0 24 24" fill="none" xmlns="http://www.w3.org/2000/svg">
<path d="M18.9192 7.31759L19.2036 7.057H18.8179L16.286 7.057C16.1895 6.94571 16.1233 6.81095 16.0944 6.66578C16.0616 6.50092 16.0785 6.33004 16.1428 6.17474C16.2071 6.01945 16.316 5.88671 16.4558 5.79331C16.5955 5.69991 16.7598 5.65004 16.9279 5.65C16.9279 5.65 16.9279 5.65 16.9279 5.65H20.0139C20.3719 5.65 20.7153 5.79223 20.9685 6.04541C21.2217 6.29858 21.3639 6.64196 21.3639 7L21.3639 10.0852C21.3639 10.0854 21.3639 10.0855 21.3639 10.0856C21.363 10.2525 21.3129 10.4154 21.22 10.5541C21.127 10.6928 20.9952 10.8011 20.8411 10.8654C20.6869 10.9297 20.5173 10.9471 20.3532 10.9156C20.2092 10.8878 20.0752 10.8234 19.9639 10.7289V8.5V8.13111L19.7064 8.39532L15.0364 13.1884C14.4929 13.706 13.771 13.9948 13.0204 13.9948C12.2695 13.9948 11.5474 13.7058 11.0039 13.1878L10.8353 13.0182L10.8353 13.0182L10.8326 13.0157C10.6143 12.8066 10.3237 12.6899 10.0214 12.6899C9.7191 12.6899 9.42848 12.8066 9.21015 13.0157L9.21012 13.0156L9.20782 13.0179L4.10782 18.1179L4.10767 18.1181C3.94786 18.2784 3.73092 18.3686 3.50459 18.3689C3.27826 18.3692 3.06107 18.2796 2.9008 18.1198C2.74054 17.96 2.65032 17.743 2.65 17.5167C2.64968 17.2904 2.73925 17.0733 2.89901 16.913C2.89904 16.913 2.89907 16.9129 2.8991 16.9129L7.99774 11.8143C8.54108 11.2958 9.26329 11.0064 10.0144 11.0064C10.7654 11.0064 11.4876 11.2957 12.0309 11.8141L12.1995 11.9838L12.1995 11.9838L12.2022 11.9864C12.4207 12.1952 12.7112 12.3117 13.0134 12.3117C13.315 12.3117 13.605 12.1956 13.8234 11.9876L18.9192 7.31759Z" fill="url(#paint0_linear_2048_357)" stroke="white" stroke-width="0.3"/>
<defs>
<linearGradient id="paint0_linear_2048_357" x1="3.85812" y1="7.66946" x2="13.3761" y2="19.6774" gradientUnits="userSpaceOnUse">
<stop offset="0.000131968" stop-color="#627FE7"/>
<stop offset="1" stop-color="#3962CA"/>
</linearGradient>
</defs>
</svg>
