<svg width="32" height="32" viewBox="0 0 32 32" fill="none" xmlns="http://www.w3.org/2000/svg">
<g clip-path="url(#clip0_2048_402)">
<path d="M26.3174 21.3322C26.2524 20.3822 26.1924 19.5622 26.1949 19.0397C26.1949 17.7897 26.0374 16.4447 24.8474 15.7747C24.443 15.5477 23.9908 15.4192 23.5274 15.3997C23.4299 14.7947 23.2174 13.8197 22.8099 13.3572C22.1149 12.5597 21.0949 12.4572 20.4824 12.4772C20.4147 12.1942 20.2821 11.9307 20.0951 11.7077C19.9081 11.4847 19.6718 11.3082 19.4049 11.1922C18.7602 10.9499 18.0495 10.9499 17.4049 11.1922C17.4349 8.2872 17.4049 5.6122 17.1549 5.0447C17.0741 4.81313 16.9346 4.60645 16.7502 4.44478C16.5657 4.28311 16.3426 4.17198 16.1024 4.1222C15.3524 3.9747 14.5849 4.4472 14.3524 4.6872C14.1824 4.8572 14.0599 4.9797 13.6724 10.2522C13.4899 12.7222 13.3174 15.5297 13.3174 16.0297C13.3174 16.4522 13.1474 17.9472 12.9724 19.3822C12.8751 19.2029 12.7915 19.0166 12.7224 18.8247C12.4574 18.0922 11.7224 16.7247 9.72239 15.7872C8.81239 15.3597 7.93989 15.4097 7.32739 15.9297C7.08354 16.1297 6.90213 16.3955 6.80465 16.6954C6.70718 16.9954 6.69772 17.317 6.77739 17.6222C6.92739 18.1572 7.29739 18.6222 7.72989 19.1872C8.15132 19.6923 8.51444 20.2433 8.81239 20.8297C9.08353 21.4635 9.30584 22.1171 9.47739 22.7847C9.66892 23.5587 9.93517 24.3122 10.2724 25.0347C10.4324 25.3497 10.6074 25.6822 10.7849 26.0347C11.3324 27.0339 11.8216 28.0639 12.2499 29.1197C12.7499 30.4847 14.8699 31.7722 15.1074 31.9147C15.1831 31.9596 15.2694 31.9838 15.3574 31.9847C15.4665 31.9836 15.5723 31.9468 15.6585 31.88C15.7448 31.8131 15.8068 31.7199 15.8351 31.6145C15.8635 31.5091 15.8566 31.3974 15.8154 31.2963C15.7743 31.1952 15.7012 31.1104 15.6074 31.0547C15.0424 30.7197 13.5024 29.6522 13.1749 28.7697C12.7268 27.6713 12.216 26.5995 11.6449 25.5597C11.4674 25.2222 11.2949 24.8922 11.1449 24.5822C10.8364 23.9189 10.5927 23.2274 10.4174 22.5172C10.2346 21.7984 9.99469 21.0953 9.69989 20.4147C9.37313 19.7574 8.97038 19.1407 8.49989 18.5772C8.13489 18.1097 7.81989 17.7047 7.72489 17.3622C7.69692 17.2412 7.7034 17.1147 7.74361 16.9972C7.78382 16.8797 7.85615 16.7757 7.95239 16.6972C8.25489 16.4472 8.73989 16.4472 9.27989 16.6972C10.9499 17.4822 11.5574 18.5847 11.7799 19.1697C11.979 19.7819 12.3219 20.3374 12.7799 20.7897C12.7249 21.2272 12.6749 21.6122 12.6349 21.8972C12.6179 22.0285 12.6536 22.1611 12.7342 22.2661C12.8148 22.371 12.9337 22.4398 13.0649 22.4572C13.0873 22.4597 13.11 22.4597 13.1324 22.4572C13.2541 22.4583 13.372 22.415 13.4641 22.3354C13.5561 22.2558 13.616 22.1453 13.6324 22.0247C13.6599 21.8172 14.3074 16.9522 14.3074 16.0247C14.3074 14.8847 14.8924 6.4822 15.1249 5.3297C15.3524 5.16682 15.6279 5.08495 15.9074 5.0972C15.9624 5.1097 16.1099 5.1397 16.2274 5.4247C16.4149 5.8947 16.4424 8.9822 16.3774 12.7647V12.8297C16.3774 12.8297 16.3774 12.8297 16.3774 12.8497C16.3424 14.8622 16.2799 17.0672 16.2024 19.1797C16.1999 19.2454 16.2104 19.3109 16.2333 19.3725C16.2561 19.4341 16.2909 19.4906 16.3356 19.5387C16.3803 19.5869 16.434 19.6258 16.4937 19.6532C16.5534 19.6806 16.618 19.696 16.6836 19.6985C16.7493 19.7009 16.8148 19.6904 16.8764 19.6676C16.938 19.6447 16.9945 19.61 17.0427 19.5653C17.0909 19.5206 17.1298 19.4668 17.1572 19.4071C17.1846 19.3474 17.1999 19.2829 17.2024 19.2172C17.2374 18.2447 17.3324 15.5072 17.3824 12.6872C17.3854 12.5881 17.412 12.491 17.4598 12.4041C17.5076 12.3172 17.5753 12.2429 17.6574 12.1872C18.0174 11.9372 18.6999 11.9797 19.0299 12.1147C19.5299 12.3247 19.5624 12.9997 19.5624 13.0247C19.5624 13.0697 19.6574 17.5647 19.6374 18.5822C19.6374 18.7148 19.6901 18.842 19.7838 18.9358C19.8776 19.0295 20.0048 19.0822 20.1374 19.0822C20.27 19.0822 20.3972 19.0295 20.4909 18.9358C20.5847 18.842 20.6374 18.7148 20.6374 18.5822C20.6524 17.7322 20.5949 14.6397 20.5724 13.4522C20.9949 13.4522 21.6499 13.5172 22.0724 13.9897C22.3224 14.2772 22.5449 15.3297 22.6124 15.9497C22.6113 15.9546 22.6113 15.9598 22.6124 15.9647V15.9997C22.7826 17.0422 22.7902 18.1048 22.6349 19.1497C22.6203 19.2151 22.619 19.2828 22.6311 19.3487C22.6432 19.4146 22.6685 19.4774 22.7053 19.5334C22.7422 19.5893 22.7899 19.6373 22.8456 19.6745C22.9014 19.7117 22.9641 19.7372 23.0299 19.7497H23.1174C23.2365 19.7514 23.3523 19.7106 23.444 19.6345C23.5357 19.5584 23.5972 19.4521 23.6174 19.3347C23.7713 18.3704 23.7906 17.3894 23.6749 16.4197C23.9165 16.4509 24.1499 16.5282 24.3624 16.6472C24.8624 16.9322 25.2024 17.4497 25.2024 19.0422C25.2024 19.5997 25.2599 20.4372 25.3274 21.4047C25.4549 23.1997 25.6124 25.4322 25.4424 26.7747C25.1924 28.7947 24.1199 31.2747 24.1074 31.3097C24.0815 31.3701 24.0677 31.435 24.0668 31.5008C24.066 31.5665 24.0781 31.6318 24.1025 31.6928C24.1268 31.7539 24.163 31.8095 24.2089 31.8566C24.2548 31.9037 24.3095 31.9413 24.3699 31.9672C24.4303 31.9931 24.4952 32.0069 24.561 32.0078C24.6267 32.0086 24.692 31.9965 24.753 31.9721C24.8141 31.9478 24.8697 31.9116 24.9168 31.8657C24.9639 31.8198 25.0015 31.7651 25.0274 31.7047C25.0724 31.5997 26.1574 29.0622 26.4349 26.9022C26.6099 25.4597 26.4474 23.1722 26.3174 21.3322Z" fill="black"/>
<path d="M29.5 14.5H24.9775C24.8449 14.5 24.7177 14.4473 24.6239 14.3536C24.5302 14.2598 24.4775 14.1326 24.4775 14C24.4775 13.8674 24.5302 13.7402 24.6239 13.6464C24.7177 13.5527 24.8449 13.5 24.9775 13.5H29.5C29.8978 13.5 30.2794 13.342 30.5607 13.0607C30.842 12.7794 31 12.3978 31 12V2.5C31 2.10218 30.842 1.72064 30.5607 1.43934C30.2794 1.15804 29.8978 1 29.5 1H2.5C2.10218 1 1.72064 1.15804 1.43934 1.43934C1.15804 1.72064 1 2.10218 1 2.5V12C1 12.3978 1.15804 12.7794 1.43934 13.0607C1.72064 13.342 2.10218 13.5 2.5 13.5H11.65C11.7826 13.5 11.9098 13.5527 12.0036 13.6464C12.0973 13.7402 12.15 13.8674 12.15 14C12.15 14.1326 12.0973 14.2598 12.0036 14.3536C11.9098 14.4473 11.7826 14.5 11.65 14.5H2.5C1.83696 14.5 1.20107 14.2366 0.732233 13.7678C0.263392 13.2989 0 12.663 0 12L0 2.5C0 1.83696 0.263392 1.20107 0.732233 0.732233C1.20107 0.263392 1.83696 0 2.5 0L29.5 0C30.163 0 30.7989 0.263392 31.2678 0.732233C31.7366 1.20107 32 1.83696 32 2.5V12C32 12.663 31.7366 13.2989 31.2678 13.7678C30.7989 14.2366 30.163 14.5 29.5 14.5Z" fill="black"/>
</g>
<defs>
<clipPath id="clip0_2048_402">
<rect width="32" height="32" fill="white"/>
</clipPath>
</defs>
</svg>
