<svg width="24" height="24" viewBox="0 0 24 24" fill="none" xmlns="http://www.w3.org/2000/svg">
<g clip-path="url(#clip0_2048_369)">
<path d="M9.3164 13.2141L9.3164 13.2141L9.31784 13.2138C9.7168 13.1329 10.1282 13.1353 10.5262 13.2208C10.9242 13.3063 11.3002 13.4731 11.6308 13.7106C11.9613 13.9482 12.2393 14.2515 12.4472 14.6014C12.6548 14.9507 12.7881 15.3389 12.8389 15.7419C12.8747 16.1357 12.8281 16.5327 12.7022 16.9075C12.576 17.2831 12.3728 17.6283 12.1057 17.921C11.8386 18.2137 11.5133 18.4474 11.1508 18.6074C10.7882 18.7673 10.3963 18.8498 10.0001 18.8498H10H6.28104L6.28078 18.8498C6.14727 18.85 6.01559 18.8188 5.89639 18.7586C5.7772 18.6985 5.67384 18.6111 5.59471 18.5036C5.51557 18.3961 5.46288 18.2714 5.4409 18.1397C5.41892 18.008 5.42826 17.873 5.46818 17.7456L5.46833 17.7451C5.71499 16.9487 6.12077 15.9184 6.74681 15.0347C7.37272 14.1513 8.2093 13.4272 9.3164 13.2141Z" fill="url(#paint0_linear_2048_369)" stroke="white" stroke-width="0.3"/>
<path d="M9.52107 14.629C8.41077 14.8373 7.86066 16.0423 7.62202 16.7934C7.59951 16.8634 7.59425 16.9376 7.60664 17.0099C7.61903 17.0823 7.64874 17.1508 7.69335 17.2099C7.73796 17.269 7.79623 17.317 7.86343 17.35C7.93062 17.3831 8.00486 17.4002 8.08013 17.4001H9.86225C10.0621 17.4001 10.2598 17.3595 10.4427 17.2809C10.6256 17.2023 10.7896 17.0874 10.9244 16.9435C11.0591 16.7996 11.1616 16.6299 11.2252 16.4452C11.2889 16.2605 11.3123 16.0649 11.2941 15.8709C11.2686 15.6727 11.2014 15.4817 11.0967 15.31C10.992 15.1382 10.8521 14.9894 10.6856 14.8728C10.5192 14.7563 10.3299 14.6744 10.1295 14.6325C9.92907 14.5905 9.72195 14.5893 9.52107 14.629Z" fill="white"/>
<path d="M22 15.15H22.15V15V9.979C22.15 9.75357 22.2396 9.53736 22.399 9.37796C22.5584 9.21855 22.7746 9.129 23 9.129C23.2254 9.129 23.4416 9.21855 23.601 9.37796C23.7604 9.53736 23.85 9.75357 23.85 9.979L23.85 16.343L23.85 16.3434C23.8518 16.9803 23.7272 17.6113 23.4835 18.1998C23.2398 18.7882 22.8818 19.3225 22.4302 19.7716L22.4299 19.7719L19.7719 22.4299L19.7716 22.4302C19.3225 22.8818 18.7882 23.2398 18.1998 23.4835C17.6113 23.7272 16.9803 23.8518 16.3434 23.85H16.343H5.00018C3.7143 23.8485 2.48154 23.337 1.57229 22.4277C0.663034 21.5185 0.15154 20.2857 0.15 18.9998L0.15 5.00009C0.151563 3.71425 0.663055 2.48152 1.57229 1.57229C2.48154 0.663034 3.7143 0.15154 5.00018 0.15L16.042 0.15C16.2674 0.15 16.4836 0.239553 16.643 0.398959C16.8024 0.558365 16.892 0.774566 16.892 1C16.892 1.22543 16.8024 1.44164 16.643 1.60104C16.4836 1.76045 16.2674 1.85 16.042 1.85H5C4.16457 1.85 3.36335 2.18187 2.77261 2.77261C2.18187 3.36335 1.85 4.16457 1.85 5V19C1.85 19.8354 2.18187 20.6366 2.77261 21.2274C3.36335 21.8181 4.16457 22.15 5 22.15H15H15.15V22V18C15.15 17.2441 15.4503 16.5192 15.9847 15.9847C16.5192 15.4503 17.2441 15.15 18 15.15H22ZM18.5695 21.2287L18.57 21.2281L21.231 18.5701L21.2317 18.5695C21.6502 18.1462 21.9412 17.6137 22.0714 17.0328L22.1123 16.85H21.925H18C17.695 16.85 17.4025 16.9712 17.1868 17.1868C16.9712 17.4025 16.85 17.695 16.85 18V21.922V22.1093L17.0328 22.0684C17.6137 21.9382 18.1462 21.6472 18.5695 21.2287Z" fill="url(#paint1_linear_2048_369)" stroke="white" stroke-width="0.3"/>
<path d="M14.5659 14.0197H14.5664C14.6779 14.0201 14.7883 13.9984 14.8914 13.9559C14.9944 13.9133 15.0879 13.8508 15.1666 13.7718L15.1668 13.7716L23.0197 5.91876L14.5659 14.0197ZM14.5659 14.0197C14.3978 14.0197 14.2335 13.9698 14.0938 13.8764C13.954 13.783 13.8451 13.6503 13.7808 13.495C13.7165 13.3397 13.6996 13.1688 13.7324 13.0039C13.7652 12.8391 13.8461 12.6876 13.965 12.5688L21.8178 4.71589M14.5659 14.0197L21.8178 4.71589M21.8178 4.71589C21.9196 4.61436 22.0003 4.49377 22.0554 4.36101C22.1104 4.22825 22.1388 4.08594 22.1388 3.94221C22.1388 3.79848 22.1104 3.65617 22.0554 3.52341C22.0005 3.39112 21.9201 3.27091 21.8189 3.16961M21.8178 4.71589L21.8189 3.16961M21.8189 3.16961C21.715 3.06186 21.5892 2.97757 21.45 2.92241C21.311 2.86733 21.1618 2.84257 21.0125 2.84979M21.8189 3.16961L11.3671 10.4803C11.216 10.6476 11.1375 10.8681 11.1489 11.0932C11.1603 11.3183 11.2607 11.5298 11.4279 11.6809C11.5952 11.8321 11.8157 11.9106 12.0408 11.8992C12.266 11.8878 12.4774 11.7874 12.6286 11.6201L12.6286 11.6201L20.2276 3.21423L20.3399 3.31371L20.2286 3.21312L20.2281 3.21368C20.327 3.10223 20.4478 3.01238 20.583 2.94976C20.7178 2.88734 20.864 2.85332 21.0125 2.84979M21.0125 2.84979C21.0132 2.84978 21.0139 2.84976 21.0146 2.84974L21.0179 2.99971L21.0103 2.8499C21.011 2.84986 21.0118 2.84983 21.0125 2.84979ZM11.3672 10.4803L18.9671 2.08035L18.9676 2.07979C19.2206 1.79739 19.5283 1.56933 19.872 1.40944C20.2156 1.24964 20.588 1.16126 20.9668 1.14966C21.3463 1.14162 21.7237 1.2099 22.0764 1.35045C22.4291 1.49103 22.75 1.70106 23.0201 1.96805C23.543 2.49237 23.8367 3.20267 23.8367 3.94321C23.8367 4.68387 23.5429 5.3943 23.0198 5.91864L11.3672 10.4803Z" fill="url(#paint2_linear_2048_369)" stroke="white" stroke-width="0.3"/>
</g>
<defs>
<linearGradient id="paint0_linear_2048_369" x1="5.83081" y1="14.0039" x2="10.307" y2="18.984" gradientUnits="userSpaceOnUse">
<stop offset="0.000131968" stop-color="#627FE7"/>
<stop offset="1" stop-color="#3962CA"/>
</linearGradient>
<linearGradient id="paint1_linear_2048_369" x1="1.71427" y1="3.99935" x2="19.545" y2="19.4019" gradientUnits="userSpaceOnUse">
<stop offset="0.000131968" stop-color="#627FE7"/>
<stop offset="1" stop-color="#3962CA"/>
</linearGradient>
<linearGradient id="paint2_linear_2048_369" x1="11.9256" y1="3.19378" x2="21.69" y2="11.5121" gradientUnits="userSpaceOnUse">
<stop offset="0.000131968" stop-color="#627FE7"/>
<stop offset="1" stop-color="#3962CA"/>
</linearGradient>
<clipPath id="clip0_2048_369">
<rect width="24" height="24" fill="white"/>
</clipPath>
</defs>
</svg>
