<svg width="24" height="24" viewBox="0 0 24 24" fill="none" xmlns="http://www.w3.org/2000/svg">
<g clip-path="url(#clip0_2048_378)">
<path d="M22 7.15H22.15V7V6C22.15 5.16457 21.8181 4.36335 21.2274 3.77261C20.6366 3.18187 19.8354 2.85 19 2.85H5C4.16457 2.85 3.36335 3.18187 2.77261 3.77261C2.18187 4.36335 1.85 5.16457 1.85 6V7V7.15H2H22ZM2 8.85H1.85V9V18C1.85 18.8354 2.18187 19.6366 2.77261 20.2274C3.36335 20.8181 4.16457 21.15 5 21.15H19C19.8354 21.15 20.6366 20.8181 21.2274 20.2274C21.8181 19.6366 22.15 18.8354 22.15 18V9V8.85H22H2ZM1.57229 2.57229C2.48154 1.66303 3.7143 1.15154 5.00018 1.15L18.9999 1.15C20.2858 1.15156 21.5185 1.66305 22.4277 2.57229C23.337 3.48154 23.8485 4.7143 23.85 6.00018V17.9998C23.8485 19.2857 23.337 20.5185 22.4277 21.4277C21.5185 22.337 20.2857 22.8485 18.9998 22.85H5.00018C3.7143 22.8485 2.48154 22.337 1.57229 21.4277C0.663034 20.5185 0.15154 19.2857 0.15 17.9998L0.15 6.00009C0.151563 4.71425 0.663055 3.48152 1.57229 2.57229ZM18.85 13C18.85 13.2254 18.7604 13.4416 18.601 13.601C18.4416 13.7604 18.2254 13.85 18 13.85H6C5.77457 13.85 5.55837 13.7604 5.39896 13.601C5.23955 13.4416 5.15 13.2254 5.15 13C5.15 12.7746 5.23955 12.5584 5.39896 12.399C5.55837 12.2396 5.77457 12.15 6 12.15H18C18.2254 12.15 18.4416 12.2396 18.601 12.399C18.7604 12.5584 18.85 12.7746 18.85 13ZM14.85 17C14.85 17.2254 14.7604 17.4416 14.601 17.601C14.4416 17.7604 14.2254 17.85 14 17.85H6C5.77457 17.85 5.55836 17.7604 5.39896 17.601C5.23955 17.4416 5.15 17.2254 5.15 17C5.15 16.7746 5.23955 16.5584 5.39896 16.399C5.55836 16.2396 5.77457 16.15 6 16.15H14C14.2254 16.15 14.4416 16.2396 14.601 16.399C14.7604 16.5584 14.85 16.7746 14.85 17ZM3.15 5C3.15 4.83189 3.19985 4.66755 3.29325 4.52777C3.38665 4.38798 3.5194 4.27904 3.67472 4.2147C3.83004 4.15037 4.00094 4.13353 4.16583 4.16633C4.33071 4.19913 4.48217 4.28008 4.60104 4.39896C4.71992 4.51783 4.80087 4.66929 4.83367 4.83417C4.86647 4.99906 4.84963 5.16996 4.7853 5.32528C4.72096 5.4806 4.61202 5.61335 4.47223 5.70675C4.33245 5.80015 4.16811 5.85 4 5.85C3.77457 5.85 3.55837 5.76045 3.39896 5.60104C3.23955 5.44163 3.15 5.22543 3.15 5ZM6.15 5C6.15 4.83189 6.19985 4.66755 6.29325 4.52777C6.38665 4.38798 6.5194 4.27904 6.67472 4.2147C6.83004 4.15037 7.00094 4.13353 7.16583 4.16633C7.33071 4.19913 7.48217 4.28008 7.60104 4.39896C7.71992 4.51783 7.80087 4.66929 7.83367 4.83417C7.86647 4.99906 7.84963 5.16996 7.7853 5.32528C7.72096 5.4806 7.61202 5.61335 7.47223 5.70675C7.33245 5.80015 7.16811 5.85 7 5.85C6.77457 5.85 6.55837 5.76045 6.39896 5.60104C6.23955 5.44163 6.15 5.22543 6.15 5ZM9.15 5C9.15 4.83189 9.19985 4.66755 9.29325 4.52777C9.38665 4.38798 9.5194 4.27904 9.67472 4.2147C9.83004 4.15037 10.0009 4.13353 10.1658 4.16633C10.3307 4.19913 10.4822 4.28008 10.601 4.39896C10.7199 4.51783 10.8009 4.66929 10.8337 4.83417C10.8665 4.99906 10.8496 5.16996 10.7853 5.32528C10.721 5.4806 10.612 5.61335 10.4722 5.70675C10.3325 5.80015 10.1681 5.85 10 5.85C9.77457 5.85 9.55836 5.76045 9.39896 5.60104C9.23955 5.44163 9.15 5.22543 9.15 5Z" fill="url(#paint0_linear_2048_378)" stroke="white" stroke-width="0.3"/>
</g>
<defs>
<linearGradient id="paint0_linear_2048_378" x1="1.71427" y1="4.66607" x2="18.2054" y2="20.2065" gradientUnits="userSpaceOnUse">
<stop offset="0.000131968" stop-color="#627FE7"/>
<stop offset="1" stop-color="#3962CA"/>
</linearGradient>
<clipPath id="clip0_2048_378">
<rect width="24" height="24" fill="white"/>
</clipPath>
</defs>
</svg>
