<svg width="573" height="520" viewBox="0 0 573 520" fill="none" xmlns="http://www.w3.org/2000/svg">
<path d="M325.054 472.152C300.835 495.415 266.44 503.548 230.364 497.835C194.287 492.122 156.561 472.564 125.756 440.494C94.9515 408.424 76.9271 369.941 72.6704 333.664C68.4138 297.387 77.9239 263.347 102.143 240.083C126.363 216.82 160.758 208.687 196.834 214.4C232.91 220.113 270.637 239.671 301.441 271.741C332.246 303.811 350.27 342.294 354.527 378.571C358.784 414.848 349.274 448.888 325.054 472.152Z" stroke="url(#paint0_linear_2839_470)"/>
<circle cx="282.5" cy="255.5" r="241" stroke="url(#paint1_linear_2839_470)"/>
<path d="M476.177 403.342C472.394 412.117 462.729 417.977 448.262 420.953C433.812 423.925 414.692 423.992 392.216 421.29C347.272 415.886 289.027 399.427 228.144 373.182C167.262 346.938 115.305 315.892 80.5181 286.925C63.1221 272.44 50.0427 258.493 42.2822 245.946C34.5125 233.385 32.137 222.335 35.9197 213.56C39.7025 204.784 49.3673 198.925 63.8347 195.949C78.2851 192.976 97.4051 192.91 119.881 195.612C164.825 201.016 223.07 217.475 283.952 243.719C344.835 269.964 396.792 301.01 431.579 329.977C448.975 344.462 462.054 358.409 469.815 370.955C477.584 383.517 479.96 394.567 476.177 403.342Z" stroke="url(#paint2_linear_2839_470)"/>
<path d="M399.583 41.2054C431.216 51.9323 451.295 87.3019 458.038 136.089C464.777 184.843 458.164 246.833 436.577 310.492C414.99 374.151 382.532 427.377 347.528 461.976C312.501 496.598 275.049 512.459 243.417 501.732C211.784 491.005 191.705 455.636 184.962 406.849C178.223 358.095 184.836 296.104 206.423 232.446C228.01 168.787 260.468 115.561 295.472 80.9617C330.499 46.3394 367.95 30.4786 399.583 41.2054Z" stroke="url(#paint3_linear_2839_470)"/>
<path d="M496.717 380.138C436.253 494.3 305.093 543.223 203.811 489.58C102.528 435.937 69.3036 299.95 129.768 185.788C190.232 71.6266 321.392 22.704 422.674 76.3469C523.957 129.99 557.181 265.976 496.717 380.138Z" stroke="url(#paint4_linear_2839_470)"/>
<path d="M479.816 402.197C429.495 497.206 295.821 525.203 181.154 464.471C66.4865 403.739 14.5393 277.43 64.8598 182.421C115.18 87.4112 248.854 59.4138 363.521 120.146C478.189 180.878 530.136 307.187 479.816 402.197Z" stroke="url(#paint5_linear_2839_470)"/>
<path d="M492.159 392.507C464.689 428.296 417.919 443.965 364.417 440.277C310.918 436.59 250.752 413.546 196.617 371.995C142.483 330.444 104.667 278.281 87.2734 227.555C69.878 176.825 72.9224 127.594 100.392 91.8057C127.862 56.0168 174.632 40.3476 228.134 44.0354C281.633 47.723 341.799 70.7665 395.934 112.317C450.068 153.868 487.884 206.031 505.278 256.757C522.673 307.487 519.629 356.718 492.159 392.507Z" stroke="url(#paint6_linear_2839_470)"/>
<circle cx="212" cy="217" r="3" fill="black"/>
<circle cx="76.5" cy="283.5" r="1.5" fill="#7C7D84"/>
<circle cx="387.5" cy="38.5" r="2.5" fill="url(#paint7_linear_2839_470)"/>
<circle cx="78.5" cy="194" r="2" fill="#C8C7C9"/>
<circle cx="219.5" cy="88.5" r="2.5" fill="black"/>
<circle cx="147.396" cy="55.3961" r="2.5" transform="rotate(61.145 147.396 55.3961)" fill="url(#paint8_linear_2839_470)"/>
<circle cx="490.5" cy="377.5" r="2.5" fill="url(#paint9_linear_2839_470)"/>
<circle cx="220.396" cy="488.396" r="2.5" transform="rotate(61.145 220.396 488.396)" fill="url(#paint10_linear_2839_470)"/>
<g filter="url(#filter0_d_2839_470)">
<rect x="247" y="220" width="80" height="80" rx="24" fill="url(#paint11_linear_2839_470)"/>
<g clip-path="url(#clip0_2839_470)">
<path d="M306.657 270.119L303.559 267.021V256.393L305.581 255.664C306.046 255.497 306.355 255.056 306.356 254.563C306.356 254.069 306.047 253.628 305.583 253.46L287.077 246.758C286.819 246.665 286.536 246.665 286.279 246.758L267.773 253.46C267.31 253.628 267.002 254.066 267 254.557C266.998 255.049 267.304 255.49 267.765 255.661L274.594 258.191V265.913C274.594 266.153 274.668 266.387 274.805 266.583C274.88 266.691 275.594 267.666 277.423 268.587C279.732 269.749 282.762 270.339 286.427 270.339C290.089 270.339 293.133 269.751 295.476 268.59C297.322 267.676 298.06 266.711 298.138 266.604C298.285 266.403 298.363 266.161 298.363 265.913V258.266L301.215 257.238V267.021L298.117 270.119C297.897 270.339 297.774 270.637 297.774 270.948C297.774 271.258 297.897 271.556 298.117 271.776L301.215 274.874V277.474C301.215 278.121 301.74 278.646 302.387 278.646C303.034 278.646 303.559 278.121 303.559 277.474V274.874L306.657 271.776C307.114 271.319 307.114 270.577 306.657 270.119ZM286.678 249.106L301.736 254.559L286.432 260.077L271.579 254.574L286.678 249.106ZM296.02 265.446C292.014 269.05 280.111 268.637 276.938 265.458V259.059L286.02 262.423C286.164 262.446 286.3 262.57 286.824 262.427L296.02 259.111V265.446H296.02ZM302.387 272.732L300.602 270.948L302.387 269.163L304.171 270.948L302.387 272.732Z" fill="white"/>
</g>
</g>
<defs>
<filter id="filter0_d_2839_470" x="219" y="212" width="136" height="136" filterUnits="userSpaceOnUse" color-interpolation-filters="sRGB">
<feFlood flood-opacity="0" result="BackgroundImageFix"/>
<feColorMatrix in="SourceAlpha" type="matrix" values="0 0 0 0 0 0 0 0 0 0 0 0 0 0 0 0 0 0 127 0" result="hardAlpha"/>
<feOffset dy="20"/>
<feGaussianBlur stdDeviation="14"/>
<feComposite in2="hardAlpha" operator="out"/>
<feColorMatrix type="matrix" values="0 0 0 0 0.0485243 0 0 0 0 0.285771 0 0 0 0 0.895833 0 0 0 0.2 0"/>
<feBlend mode="normal" in2="BackgroundImageFix" result="effect1_dropShadow_2839_470"/>
<feBlend mode="normal" in="SourceGraphic" in2="effect1_dropShadow_2839_470" result="shape"/>
</filter>
<linearGradient id="paint0_linear_2839_470" x1="59.8458" y1="201.117" x2="194.01" y2="249.595" gradientUnits="userSpaceOnUse">
<stop stop-opacity="0"/>
<stop offset="0.696925" stop-color="#421458"/>
<stop offset="1" stop-opacity="0"/>
</linearGradient>
<linearGradient id="paint1_linear_2839_470" x1="75.4997" y1="94.4868" x2="434.342" y2="404.463" gradientUnits="userSpaceOnUse">
<stop offset="0.000131968" stop-color="#CC7474"/>
<stop offset="1" stop-color="#D995DF"/>
</linearGradient>
<linearGradient id="paint2_linear_2839_470" x1="284.15" y1="243.26" x2="227.946" y2="373.642" gradientUnits="userSpaceOnUse">
<stop stop-color="#300C36"/>
<stop offset="1" stop-opacity="0"/>
</linearGradient>
<linearGradient id="paint3_linear_2839_470" x1="205.949" y1="232.285" x2="437.051" y2="310.653" gradientUnits="userSpaceOnUse">
<stop stop-color="#300C36"/>
<stop offset="1" stop-opacity="0"/>
</linearGradient>
<linearGradient id="paint4_linear_2839_470" x1="313.39" y1="57.7432" x2="380.152" y2="502.275" gradientUnits="userSpaceOnUse">
<stop stop-color="#9627BD"/>
<stop offset="1" stop-opacity="0"/>
</linearGradient>
<linearGradient id="paint5_linear_2839_470" x1="363.755" y1="119.704" x2="180.92" y2="464.913" gradientUnits="userSpaceOnUse">
<stop stop-color="#300C36"/>
<stop offset="1" stop-opacity="0"/>
</linearGradient>
<linearGradient id="paint6_linear_2839_470" x1="194.682" y1="26.1924" x2="194.822" y2="417.271" gradientUnits="userSpaceOnUse">
<stop offset="0.000131968" stop-color="#7F74CC"/>
<stop offset="1" stop-color="#C195DF" stop-opacity="0"/>
</linearGradient>
<linearGradient id="paint7_linear_2839_470" x1="385.357" y1="36.8332" x2="389.072" y2="40.0421" gradientUnits="userSpaceOnUse">
<stop offset="0.000131968" stop-color="#CC7474"/>
<stop offset="1" stop-color="#D995DF"/>
</linearGradient>
<linearGradient id="paint8_linear_2839_470" x1="145.253" y1="53.7293" x2="148.968" y2="56.9382" gradientUnits="userSpaceOnUse">
<stop offset="0.000131968" stop-color="#7F74CC"/>
<stop offset="1" stop-color="#C195DF"/>
</linearGradient>
<linearGradient id="paint9_linear_2839_470" x1="488.357" y1="375.833" x2="492.072" y2="379.042" gradientUnits="userSpaceOnUse">
<stop offset="0.000131968" stop-color="#CC7474"/>
<stop offset="1" stop-color="#D995DF"/>
</linearGradient>
<linearGradient id="paint10_linear_2839_470" x1="218.253" y1="486.729" x2="221.968" y2="489.938" gradientUnits="userSpaceOnUse">
<stop offset="0.000131968" stop-color="#CC7474"/>
<stop offset="1" stop-color="#D995DF"/>
</linearGradient>
<linearGradient id="paint11_linear_2839_470" x1="252.714" y1="233.331" x2="312.15" y2="284.673" gradientUnits="userSpaceOnUse">
<stop offset="0.000131968" stop-color="#627FE7"/>
<stop offset="1" stop-color="#3962CA"/>
</linearGradient>
<clipPath id="clip0_2839_470">
<rect width="40" height="40" fill="white" transform="translate(267 240)"/>
</clipPath>
</defs>
</svg>
